<svg width="20" height="20" viewBox="0 0 20 20" fill="none" xmlns="http://www.w3.org/2000/svg">
<rect width="4" height="20" transform="matrix(-1 0 0 1 20 0)" fill="#111111"/>
<rect width="16" height="4" transform="matrix(-1 0 0 1 16 0)" fill="#444444"/>
<rect width="4" height="4" transform="matrix(-1 0 0 1 4 0)" fill="#343434"/>
<rect width="4" height="4" transform="matrix(-1 0 0 1 16 12)" fill="#343434"/>
<rect width="4" height="8" transform="matrix(-1 0 0 1 16 4)" fill="#444444"/>
<rect width="3.99987" height="3.99987" transform="matrix(-1 0 0 1 7.99976 3.99902)" fill="#343434"/>
<rect width="4" height="4" transform="matrix(-1 0 0 1 12 8)" fill="#343434"/>
<rect width="4" height="4" transform="matrix(-1 0 0 1 12 4)" fill="#444444"/>
<rect width="3.99987" height="3.99987" transform="matrix(-1 0 0 1 15.9993 16)" fill="#111111"/>
<rect width="3.99987" height="3.99987" transform="matrix(-1 0 0 1 11.9996 11.999)" fill="#111111"/>
<rect width="3.99987" height="3.99987" transform="matrix(-1 0 0 1 7.99976 7.99805)" fill="#111111"/>
<rect width="3.99987" height="3.99987" transform="matrix(-1 0 0 1 3.99988 3.99902)" fill="#111111"/>
</svg>
