<svg width="250" height="140" viewBox="0 0 250 140" fill="none" xmlns="http://www.w3.org/2000/svg">
<path d="M55 80H60V85H55V80Z" fill="#8BD9FF"/>
<path d="M55 85H60V90H55V85Z" fill="#8BD9FF"/>
<path d="M55 90H60V95H55V90Z" fill="#8BD9FF"/>
<path d="M50 95H55V100H50V95Z" fill="#8BD9FF"/>
<path d="M20 85H25V90H20V85Z" fill="#8BD9FF"/>
<path d="M20 100H25V105H20V100Z" fill="#8BD9FF"/>
<path d="M50 100H55V105H50V100Z" fill="#8BD9FF"/>
<path d="M20 75H25V80H20V75Z" fill="#8BD9FF"/>
<path d="M20 90H25V95H20V90Z" fill="#B6E6FE"/>
<path d="M50 75H55V80H50V75Z" fill="#8BD9FF"/>
<path d="M20 80H25V85H20V80Z" fill="#8BD9FF"/>
<path d="M20 95H25V100H20V95Z" fill="#8BD9FF"/>
<path d="M60 80H65V85H60V80Z" fill="#8BD9FF"/>
<path d="M60 85H65V90H60V85Z" fill="#8BD9FF"/>
<path d="M60 90H65V95H60V90Z" fill="#8BD9FF"/>
<path d="M55 100H60V105H55V100Z" fill="#8BD9FF"/>
<path d="M25 75H30V80H25V75Z" fill="#8BD9FF"/>
<path d="M25 90H30V95H25V90Z" fill="#B6E6FE"/>
<path d="M55 95H60V100H55V95Z" fill="#8BD9FF"/>
<path d="M25 85H30V90H25V85Z" fill="#8BD9FF"/>
<path d="M25 100H30V105H25V100Z" fill="#8BD9FF"/>
<path d="M55 75H60V80H55V75Z" fill="#8BD9FF"/>
<path d="M25 80H30V85H25V80Z" fill="#8BD9FF"/>
<path d="M25 95H30V100H25V95Z" fill="#8BD9FF"/>
<path d="M50 80H55V85H50V80Z" fill="#8BD9FF"/>
<path d="M50 85H55V90H50V85Z" fill="#8BD9FF"/>
<path d="M45 100H50V105H45V100Z" fill="#8BD9FF"/>
<path d="M15 75H20V80H15V75Z" fill="#8BD9FF"/>
<path d="M15 90H20V95H15V90Z" fill="#B6E6FE"/>
<path d="M50 90H55V95H50V90Z" fill="#8BD9FF"/>
<path d="M45 95H50V100H45V95Z" fill="#8BD9FF"/>
<path d="M15 85H20V90H15V85Z" fill="#8BD9FF"/>
<path d="M15 100H20V105H15V100Z" fill="#8BD9FF"/>
<path d="M45 75H50V80H45V75Z" fill="#8BD9FF"/>
<path d="M15 80H20V85H15V80Z" fill="#8BD9FF"/>
<path d="M15 95H20V100H15V95Z" fill="#8BD9FF"/>
<path d="M45 80H50V85H45V80Z" fill="#8BD9FF"/>
<path d="M40 100H45V105H40V100Z" fill="#8BD9FF"/>
<path d="M10 75H15V80H10V75Z" fill="#8BD9FF"/>
<path d="M10 90H15V95H10V90Z" fill="#B6E6FE"/>
<path d="M45 85H50V90H45V85Z" fill="#8BD9FF"/>
<path d="M45 90H50V95H45V90Z" fill="#8BD9FF"/>
<path d="M40 95H45V100H40V95Z" fill="#8BD9FF"/>
<path d="M10 85H15V90H10V85Z" fill="#8BD9FF"/>
<path d="M10 100H15V105H10V100Z" fill="#8BD9FF"/>
<path d="M40 75H45V80H40V75Z" fill="#8BD9FF"/>
<path d="M10 80H15V85H10V80Z" fill="#8BD9FF"/>
<path d="M10 95H15V100H10V95Z" fill="#8BD9FF"/>
<path d="M35 100H40V105H35V100Z" fill="#8BD9FF"/>
<path d="M5 75H10V80H5V75Z" fill="#8BD9FF"/>
<path d="M5 90H10V95H5V90Z" fill="#8BD9FF"/>
<path d="M40 80H45V85H40V80Z" fill="#8BD9FF"/>
<path d="M40 85H45V90H40V85Z" fill="#8BD9FF"/>
<path d="M40 90H45V95H40V90Z" fill="#8BD9FF"/>
<path d="M35 95H40V100H35V95Z" fill="#B6E6FE"/>
<path d="M5 85H10V90H5V85Z" fill="#8BD9FF"/>
<path d="M5 100H10V105H5V100Z" fill="#8BD9FF"/>
<path d="M35 75H40V80H35V75Z" fill="#8BD9FF"/>
<path d="M5 80H10V85H5V80Z" fill="#8BD9FF"/>
<path d="M5 95H10V100H5V95Z" fill="#8BD9FF"/>
<path d="M0 75H5V80H0V75Z" fill="#8BD9FF"/>
<path d="M0 90H5V95H0V90Z" fill="#8BD9FF"/>
<path d="M35 80H40V85H35V80Z" fill="#8BD9FF"/>
<path d="M35 85H40V90H35V85Z" fill="#8BD9FF"/>
<path d="M35 90H40V95H35V90Z" fill="#8BD9FF"/>
<path d="M30 100H35V105H30V100Z" fill="#8BD9FF"/>
<path d="M30 95H35V100H30V95Z" fill="#8BD9FF"/>
<path d="M30 75H35V80H30V75Z" fill="#8BD9FF"/>
<path d="M30 80H35V85H30V80Z" fill="#8BD9FF"/>
<path d="M30 85H35V90H30V85Z" fill="#8BD9FF"/>
<path d="M30 90H35V95H30V90Z" fill="#B6E6FE"/>
<path d="M60 75H65V80H60V75Z" fill="#8BD9FF"/>
<path d="M60 100H65V105H60V100Z" fill="#8BD9FF"/>
<path d="M60 95H65V100H60V95Z" fill="#8BD9FF"/>
<path d="M65 75H70V80H65V75Z" fill="#8BD9FF"/>
<path d="M65 80H70V85H65V80Z" fill="#8BD9FF"/>
<path d="M70 75H75V80H70V75Z" fill="#8BD9FF"/>
<path d="M70 80H75V85H70V80Z" fill="#8BD9FF"/>
<path d="M100 75H105V80H100V75Z" fill="#8BD9FF"/>
<path d="M90 75H95V80H90V75Z" fill="#8BD9FF"/>
<path d="M105 75H110V80H105V75Z" fill="#8BD9FF"/>
<path d="M95 75H100V80H95V75Z" fill="#8BD9FF"/>
<path d="M85 75H90V80H85V75Z" fill="#8BD9FF"/>
<path d="M80 75H85V80H80V75Z" fill="#8BD9FF"/>
<path d="M75 75H80V80H75V75Z" fill="#8BD9FF"/>
<path d="M140 75H145V80H140V75Z" fill="#8BD9FF"/>
<path d="M135 75H140V80H135V75Z" fill="#8BD9FF"/>
<path d="M130 75H135V80H130V75Z" fill="#8BD9FF"/>
<path d="M125 75H130V80H125V75Z" fill="#8BD9FF"/>
<path d="M120 75H125V80H120V75Z" fill="#8BD9FF"/>
<path d="M115 75H120V80H115V75Z" fill="#8BD9FF"/>
<path d="M110 75H115V80H110V75Z" fill="#8BD9FF"/>
<path d="M145 75H150V80H145V75Z" fill="#8BD9FF"/>
<path d="M150 75H155V80H150V75Z" fill="#8BD9FF"/>
<path d="M170 75H175V80H170V75Z" fill="#8BD9FF"/>
<path d="M175 75H180V80H175V75Z" fill="#8BD9FF"/>
<path d="M165 75H170V80H165V75Z" fill="#8BD9FF"/>
<path d="M160 75H165V80H160V75Z" fill="#8BD9FF"/>
<path d="M155 75H160V80H155V75Z" fill="#8BD9FF"/>
<path d="M195 75H200V80H195V75Z" fill="#8BD9FF"/>
<path d="M200 75H205V80H200V75Z" fill="#8BD9FF"/>
<path d="M205 75H210V80H205V75Z" fill="#8BD9FF"/>
<path d="M210 75H215V80H210V75Z" fill="#8BD9FF"/>
<path d="M190 75H195V80H190V75Z" fill="#8BD9FF"/>
<path d="M185 75H190V80H185V75Z" fill="#8BD9FF"/>
<path d="M180 75H185V80H180V75Z" fill="#8BD9FF"/>
<path d="M215 75H220V80H215V75Z" fill="#8BD9FF"/>
<path d="M235 75H240V80H235V75Z" fill="#8BD9FF"/>
<path d="M240 75H245V80H240V75Z" fill="#8BD9FF"/>
<path d="M245 75H250V80H245V75Z" fill="#8BD9FF"/>
<path d="M230 75H235V80H230V75Z" fill="#8BD9FF"/>
<path d="M225 75H230V80H225V75Z" fill="#8BD9FF"/>
<path d="M220 75H225V80H220V75Z" fill="#8BD9FF"/>
<path d="M100 80H105V85H100V80Z" fill="#8BD9FF"/>
<path d="M90 80H95V85H90V80Z" fill="#8BD9FF"/>
<path d="M105 80H110V85H105V80Z" fill="#8BD9FF"/>
<path d="M95 80H100V85H95V80Z" fill="#8BD9FF"/>
<path d="M85 80H90V85H85V80Z" fill="#8BD9FF"/>
<path d="M80 80H85V85H80V80Z" fill="#8BD9FF"/>
<path d="M75 80H80V85H75V80Z" fill="#8BD9FF"/>
<path d="M140 80H145V85H140V80Z" fill="#8BD9FF"/>
<path d="M135 80H140V85H135V80Z" fill="#8BD9FF"/>
<path d="M130 80H135V85H130V80Z" fill="#8BD9FF"/>
<path d="M125 80H130V85H125V80Z" fill="#8BD9FF"/>
<path d="M120 80H125V85H120V80Z" fill="#8BD9FF"/>
<path d="M115 80H120V85H115V80Z" fill="#8BD9FF"/>
<path d="M110 80H115V85H110V80Z" fill="#8BD9FF"/>
<path d="M145 80H150V85H145V80Z" fill="#8BD9FF"/>
<path d="M150 80H155V85H150V80Z" fill="#8BD9FF"/>
<path d="M170 80H175V85H170V80Z" fill="#8BD9FF"/>
<path d="M175 80H180V85H175V80Z" fill="#8BD9FF"/>
<path d="M165 80H170V85H165V80Z" fill="#8BD9FF"/>
<path d="M160 80H165V85H160V80Z" fill="#8BD9FF"/>
<path d="M155 80H160V85H155V80Z" fill="#8BD9FF"/>
<path d="M195 80H200V85H195V80Z" fill="#8BD9FF"/>
<path d="M200 80H205V85H200V80Z" fill="#8BD9FF"/>
<path d="M205 80H210V85H205V80Z" fill="#8BD9FF"/>
<path d="M210 80H215V85H210V80Z" fill="#8BD9FF"/>
<path d="M190 80H195V85H190V80Z" fill="#8BD9FF"/>
<path d="M185 80H190V85H185V80Z" fill="#8BD9FF"/>
<path d="M180 80H185V85H180V80Z" fill="#8BD9FF"/>
<path d="M215 80H220V85H215V80Z" fill="#8BD9FF"/>
<path d="M235 80H240V85H235V80Z" fill="#8BD9FF"/>
<path d="M240 80H245V85H240V80Z" fill="#8BD9FF"/>
<path d="M245 80H250V85H245V80Z" fill="#8BD9FF"/>
<path d="M230 80H235V85H230V80Z" fill="#8BD9FF"/>
<path d="M225 80H230V85H225V80Z" fill="#8BD9FF"/>
<path d="M220 80H225V85H220V80Z" fill="#8BD9FF"/>
<path d="M100 85H105V90H100V85Z" fill="#8BD9FF"/>
<path d="M90 85H95V90H90V85Z" fill="#8BD9FF"/>
<path d="M70 85H75V90H70V85Z" fill="#8BD9FF"/>
<path d="M70 90H75V95H70V90Z" fill="#8BD9FF"/>
<path d="M70 95H75V100H70V95Z" fill="#8BD9FF"/>
<path d="M65 85H70V90H65V85Z" fill="#8BD9FF"/>
<path d="M65 90H70V95H65V90Z" fill="#8BD9FF"/>
<path d="M65 95H70V100H65V95Z" fill="#8BD9FF"/>
<path d="M105 85H110V90H105V85Z" fill="#8BD9FF"/>
<path d="M95 85H100V90H95V85Z" fill="#8BD9FF"/>
<path d="M85 85H90V90H85V85Z" fill="#8BD9FF"/>
<path d="M80 85H85V90H80V85Z" fill="#8BD9FF"/>
<path d="M75 85H80V90H75V85Z" fill="#8BD9FF"/>
<path d="M140 85H145V90H140V85Z" fill="#8BD9FF"/>
<path d="M135 85H140V90H135V85Z" fill="#8BD9FF"/>
<path d="M130 85H135V90H130V85Z" fill="#8BD9FF"/>
<path d="M125 85H130V90H125V85Z" fill="#8BD9FF"/>
<path d="M120 85H125V90H120V85Z" fill="#8BD9FF"/>
<path d="M115 85H120V90H115V85Z" fill="#8BD9FF"/>
<path d="M110 85H115V90H110V85Z" fill="#8BD9FF"/>
<path d="M145 85H150V90H145V85Z" fill="#8BD9FF"/>
<path d="M150 85H155V90H150V85Z" fill="#8BD9FF"/>
<path d="M170 85H175V90H170V85Z" fill="#8BD9FF"/>
<path d="M175 85H180V90H175V85Z" fill="#8BD9FF"/>
<path d="M165 85H170V90H165V85Z" fill="#8BD9FF"/>
<path d="M160 85H165V90H160V85Z" fill="#8BD9FF"/>
<path d="M155 85H160V90H155V85Z" fill="#8BD9FF"/>
<path d="M195 85H200V90H195V85Z" fill="#8BD9FF"/>
<path d="M200 85H205V90H200V85Z" fill="#8BD9FF"/>
<path d="M205 85H210V90H205V85Z" fill="#8BD9FF"/>
<path d="M210 85H215V90H210V85Z" fill="#8BD9FF"/>
<path d="M190 85H195V90H190V85Z" fill="#8BD9FF"/>
<path d="M185 85H190V90H185V85Z" fill="#8BD9FF"/>
<path d="M180 85H185V90H180V85Z" fill="#8BD9FF"/>
<path d="M215 85H220V90H215V85Z" fill="#8BD9FF"/>
<path d="M235 85H240V90H235V85Z" fill="#8BD9FF"/>
<path d="M240 85H245V90H240V85Z" fill="#8BD9FF"/>
<path d="M245 85H250V90H245V85Z" fill="#8BD9FF"/>
<path d="M230 85H235V90H230V85Z" fill="#8BD9FF"/>
<path d="M225 85H230V90H225V85Z" fill="#8BD9FF"/>
<path d="M220 85H225V90H220V85Z" fill="#8BD9FF"/>
<path d="M100 90H105V95H100V90Z" fill="#8BD9FF"/>
<path d="M90 90H95V95H90V90Z" fill="#8BD9FF"/>
<path d="M105 90H110V95H105V90Z" fill="#8BD9FF"/>
<path d="M95 90H100V95H95V90Z" fill="#8BD9FF"/>
<path d="M85 90H90V95H85V90Z" fill="#8BD9FF"/>
<path d="M80 90H85V95H80V90Z" fill="#8BD9FF"/>
<path d="M75 90H80V95H75V90Z" fill="#8BD9FF"/>
<path d="M140 90H145V95H140V90Z" fill="#8BD9FF"/>
<path d="M135 90H140V95H135V90Z" fill="#8BD9FF"/>
<path d="M130 90H135V95H130V90Z" fill="#8BD9FF"/>
<path d="M125 90H130V95H125V90Z" fill="#8BD9FF"/>
<path d="M120 90H125V95H120V90Z" fill="#8BD9FF"/>
<path d="M115 90H120V95H115V90Z" fill="#8BD9FF"/>
<path d="M110 90H115V95H110V90Z" fill="#8BD9FF"/>
<path d="M145 90H150V95H145V90Z" fill="#8BD9FF"/>
<path d="M150 90H155V95H150V90Z" fill="#8BD9FF"/>
<path d="M170 90H175V95H170V90Z" fill="#8BD9FF"/>
<path d="M175 90H180V95H175V90Z" fill="#8BD9FF"/>
<path d="M165 90H170V95H165V90Z" fill="#8BD9FF"/>
<path d="M160 90H165V95H160V90Z" fill="#8BD9FF"/>
<path d="M155 90H160V95H155V90Z" fill="#8BD9FF"/>
<path d="M195 90H200V95H195V90Z" fill="#8BD9FF"/>
<path d="M200 90H205V95H200V90Z" fill="#8BD9FF"/>
<path d="M205 90H210V95H205V90Z" fill="#8BD9FF"/>
<path d="M210 90H215V95H210V90Z" fill="#8BD9FF"/>
<path d="M190 90H195V95H190V90Z" fill="#8BD9FF"/>
<path d="M185 90H190V95H185V90Z" fill="#8BD9FF"/>
<path d="M180 90H185V95H180V90Z" fill="#8BD9FF"/>
<path d="M215 90H220V95H215V90Z" fill="#8BD9FF"/>
<path d="M235 90H240V95H235V90Z" fill="#8BD9FF"/>
<path d="M240 90H245V95H240V90Z" fill="#8BD9FF"/>
<path d="M245 90H250V95H245V90Z" fill="#8BD9FF"/>
<path d="M230 90H235V95H230V90Z" fill="#8BD9FF"/>
<path d="M225 90H230V95H225V90Z" fill="#8BD9FF"/>
<path d="M220 90H225V95H220V90Z" fill="#8BD9FF"/>
<path d="M100 95H105V100H100V95Z" fill="#8BD9FF"/>
<path d="M90 95H95V100H90V95Z" fill="#8BD9FF"/>
<path d="M105 95H110V100H105V95Z" fill="#8BD9FF"/>
<path d="M95 95H100V100H95V95Z" fill="#8BD9FF"/>
<path d="M85 95H90V100H85V95Z" fill="#8BD9FF"/>
<path d="M80 95H85V100H80V95Z" fill="#8BD9FF"/>
<path d="M75 95H80V100H75V95Z" fill="#8BD9FF"/>
<path d="M140 95H145V100H140V95Z" fill="#8BD9FF"/>
<path d="M135 95H140V100H135V95Z" fill="#B6E6FE"/>
<path d="M130 95H135V100H130V95Z" fill="#B6E6FE"/>
<path d="M125 95H130V100H125V95Z" fill="#B6E6FE"/>
<path d="M120 95H125V100H120V95Z" fill="#B6E6FE"/>
<path d="M115 95H120V100H115V95Z" fill="#B6E6FE"/>
<path d="M110 95H115V100H110V95Z" fill="#8BD9FF"/>
<path d="M145 95H150V100H145V95Z" fill="#8BD9FF"/>
<path d="M150 95H155V100H150V95Z" fill="#8BD9FF"/>
<path d="M170 95H175V100H170V95Z" fill="#8BD9FF"/>
<path d="M175 95H180V100H175V95Z" fill="#8BD9FF"/>
<path d="M165 95H170V100H165V95Z" fill="#8BD9FF"/>
<path d="M160 95H165V100H160V95Z" fill="#8BD9FF"/>
<path d="M155 95H160V100H155V95Z" fill="#8BD9FF"/>
<path d="M195 95H200V100H195V95Z" fill="#8BD9FF"/>
<path d="M200 95H205V100H200V95Z" fill="#8BD9FF"/>
<path d="M205 95H210V100H205V95Z" fill="#8BD9FF"/>
<path d="M210 95H215V100H210V95Z" fill="#8BD9FF"/>
<path d="M190 95H195V100H190V95Z" fill="#8BD9FF"/>
<path d="M185 95H190V100H185V95Z" fill="#8BD9FF"/>
<path d="M180 95H185V100H180V95Z" fill="#8BD9FF"/>
<path d="M215 95H220V100H215V95Z" fill="#8BD9FF"/>
<path d="M235 95H240V100H235V95Z" fill="#8BD9FF"/>
<path d="M240 95H245V100H240V95Z" fill="#8BD9FF"/>
<path d="M245 95H250V100H245V95Z" fill="#8BD9FF"/>
<path d="M230 95H235V100H230V95Z" fill="#8BD9FF"/>
<path d="M225 95H230V100H225V95Z" fill="#8BD9FF"/>
<path d="M220 95H225V100H220V95Z" fill="#8BD9FF"/>
<path d="M70 100H75V105H70V100Z" fill="#8BD9FF"/>
<path d="M65 100H70V105H65V100Z" fill="#8BD9FF"/>
<path d="M100 100H105V105H100V100Z" fill="#8BD9FF"/>
<path d="M90 100H95V105H90V100Z" fill="#8BD9FF"/>
<path d="M105 100H110V105H105V100Z" fill="#B6E6FE"/>
<path d="M95 100H100V105H95V100Z" fill="#8BD9FF"/>
<path d="M85 100H90V105H85V100Z" fill="#8BD9FF"/>
<path d="M80 100H85V105H80V100Z" fill="#8BD9FF"/>
<path d="M75 100H80V105H75V100Z" fill="#8BD9FF"/>
<path d="M140 100H145V105H140V100Z" fill="#8BD9FF"/>
<path d="M135 100H140V105H135V100Z" fill="#8BD9FF"/>
<path d="M130 100H135V105H130V100Z" fill="#8BD9FF"/>
<path d="M125 100H130V105H125V100Z" fill="#8BD9FF"/>
<path d="M120 100H125V105H120V100Z" fill="#8BD9FF"/>
<path d="M115 100H120V105H115V100Z" fill="#8BD9FF"/>
<path d="M110 100H115V105H110V100Z" fill="#B6E6FE"/>
<path d="M145 100H150V105H145V100Z" fill="#8BD9FF"/>
<path d="M150 100H155V105H150V100Z" fill="#8BD9FF"/>
<path d="M170 100H175V105H170V100Z" fill="#8BD9FF"/>
<path d="M175 100H180V105H175V100Z" fill="#8BD9FF"/>
<path d="M165 100H170V105H165V100Z" fill="#8BD9FF"/>
<path d="M160 100H165V105H160V100Z" fill="#8BD9FF"/>
<path d="M155 100H160V105H155V100Z" fill="#8BD9FF"/>
<path d="M195 100H200V105H195V100Z" fill="#8BD9FF"/>
<path d="M200 100H205V105H200V100Z" fill="#8BD9FF"/>
<path d="M205 100H210V105H205V100Z" fill="#8BD9FF"/>
<path d="M210 100H215V105H210V100Z" fill="#B6E6FE"/>
<path d="M190 100H195V105H190V100Z" fill="#8BD9FF"/>
<path d="M185 100H190V105H185V100Z" fill="#8BD9FF"/>
<path d="M180 100H185V105H180V100Z" fill="#8BD9FF"/>
<path d="M215 100H220V105H215V100Z" fill="#B6E6FE"/>
<path d="M235 100H240V105H235V100Z" fill="#B6E6FE"/>
<path d="M240 100H245V105H240V100Z" fill="#8BD9FF"/>
<path d="M245 100H250V105H245V100Z" fill="#8BD9FF"/>
<path d="M230 100H235V105H230V100Z" fill="#B6E6FE"/>
<path d="M225 100H230V105H225V100Z" fill="#B6E6FE"/>
<path d="M220 100H225V105H220V100Z" fill="#B6E6FE"/>
<path d="M0 85H5V90H0V85Z" fill="#8BD9FF"/>
<path d="M0 100H5V105H0V100Z" fill="#8BD9FF"/>
<path d="M0 80H5V85H0V80Z" fill="#8BD9FF"/>
<path d="M0 95H5V100H0V95Z" fill="#8BD9FF"/>
<path d="M55 50H60V55H55V50Z" fill="#8BD9FF"/>
<path d="M55 55H60V60H55V55Z" fill="#8BD9FF"/>
<path d="M55 60H60V65H55V60Z" fill="#8BD9FF"/>
<path d="M50 65H55V70H50V65Z" fill="#8BD9FF"/>
<path d="M20 55H25V60H20V55Z" fill="#B6E6FE"/>
<path d="M20 70H25V75H20V70Z" fill="#8BD9FF"/>
<path d="M50 70H55V75H50V70Z" fill="#8BD9FF"/>
<path d="M20 45H25V50H20V45Z" fill="#8BD9FF"/>
<path d="M20 60H25V65H20V60Z" fill="#8BD9FF"/>
<path d="M50 45H55V50H50V45Z" fill="#8BD9FF"/>
<path d="M20 50H25V55H20V50Z" fill="#8BD9FF"/>
<path d="M20 65H25V70H20V65Z" fill="#8BD9FF"/>
<path d="M60 50H65V55H60V50Z" fill="#8BD9FF"/>
<path d="M60 55H65V60H60V55Z" fill="#8BD9FF"/>
<path d="M60 60H65V65H60V60Z" fill="#8BD9FF"/>
<path d="M55 70H60V75H55V70Z" fill="#8BD9FF"/>
<path d="M25 45H30V50H25V45Z" fill="#8BD9FF"/>
<path d="M25 60H30V65H25V60Z" fill="#B6E6FE"/>
<path d="M55 65H60V70H55V65Z" fill="#8BD9FF"/>
<path d="M25 55H30V60H25V55Z" fill="#8BD9FF"/>
<path d="M25 70H30V75H25V70Z" fill="#8BD9FF"/>
<path d="M55 45H60V50H55V45Z" fill="#8BD9FF"/>
<path d="M25 50H30V55H25V50Z" fill="#8BD9FF"/>
<path d="M25 65H30V70H25V65Z" fill="#8BD9FF"/>
<path d="M50 50H55V55H50V50Z" fill="#8BD9FF"/>
<path d="M50 55H55V60H50V55Z" fill="#8BD9FF"/>
<path d="M45 70H50V75H45V70Z" fill="#8BD9FF"/>
<path d="M15 45H20V50H15V45Z" fill="#8BD9FF"/>
<path d="M15 60H20V65H15V60Z" fill="#8BD9FF"/>
<path d="M50 60H55V65H50V60Z" fill="#8BD9FF"/>
<path d="M45 65H50V70H45V65Z" fill="#8BD9FF"/>
<path d="M15 55H20V60H15V55Z" fill="#B6E6FE"/>
<path d="M15 70H20V75H15V70Z" fill="#8BD9FF"/>
<path d="M45 45H50V50H45V45Z" fill="#8BD9FF"/>
<path d="M15 50H20V55H15V50Z" fill="#8BD9FF"/>
<path d="M15 65H20V70H15V65Z" fill="#8BD9FF"/>
<path d="M45 50H50V55H45V50Z" fill="#8BD9FF"/>
<path d="M40 70H45V75H40V70Z" fill="#8BD9FF"/>
<path d="M10 45H15V50H10V45Z" fill="#8BD9FF"/>
<path d="M10 60H15V65H10V60Z" fill="#8BD9FF"/>
<path d="M45 55H50V60H45V55Z" fill="#8BD9FF"/>
<path d="M45 60H50V65H45V60Z" fill="#8BD9FF"/>
<path d="M40 65H45V70H40V65Z" fill="#8BD9FF"/>
<path d="M10 55H15V60H10V55Z" fill="#B6E6FE"/>
<path d="M10 70H15V75H10V70Z" fill="#8BD9FF"/>
<path d="M40 45H45V50H40V45Z" fill="#8BD9FF"/>
<path d="M10 50H15V55H10V50Z" fill="#8BD9FF"/>
<path d="M10 65H15V70H10V65Z" fill="#8BD9FF"/>
<path d="M35 70H40V75H35V70Z" fill="#8BD9FF"/>
<path d="M5 45H10V50H5V45Z" fill="#8BD9FF"/>
<path d="M5 60H10V65H5V60Z" fill="#B6E6FE"/>
<path d="M40 50H45V55H40V50Z" fill="#8BD9FF"/>
<path d="M40 55H45V60H40V55Z" fill="#8BD9FF"/>
<path d="M40 60H45V65H40V60Z" fill="#8BD9FF"/>
<path d="M35 65H40V70H35V65Z" fill="#8BD9FF"/>
<path d="M5 55H10V60H5V55Z" fill="#8BD9FF"/>
<path d="M5 70H10V75H5V70Z" fill="#8BD9FF"/>
<path d="M35 45H40V50H35V45Z" fill="#8BD9FF"/>
<path d="M5 50H10V55H5V50Z" fill="#8BD9FF"/>
<path d="M5 65H10V70H5V65Z" fill="#8BD9FF"/>
<path d="M0 45H5V50H0V45Z" fill="#8BD9FF"/>
<path d="M0 60H5V65H0V60Z" fill="#B6E6FE"/>
<path d="M35 50H40V55H35V50Z" fill="#8BD9FF"/>
<path d="M35 55H40V60H35V55Z" fill="#8BD9FF"/>
<path d="M35 60H40V65H35V60Z" fill="#8BD9FF"/>
<path d="M30 70H35V75H30V70Z" fill="#8BD9FF"/>
<path d="M30 65H35V70H30V65Z" fill="#8BD9FF"/>
<path d="M30 45H35V50H30V45Z" fill="#8BD9FF"/>
<path d="M30 50H35V55H30V50Z" fill="#8BD9FF"/>
<path d="M30 55H35V60H30V55Z" fill="#8BD9FF"/>
<path d="M30 60H35V65H30V60Z" fill="#B6E6FE"/>
<path d="M60 45H65V50H60V45Z" fill="#8BD9FF"/>
<path d="M60 70H65V75H60V70Z" fill="#8BD9FF"/>
<path d="M60 65H65V70H60V65Z" fill="#8BD9FF"/>
<path d="M65 45H70V50H65V45Z" fill="#8BD9FF"/>
<path d="M65 50H70V55H65V50Z" fill="#8BD9FF"/>
<path d="M70 45H75V50H70V45Z" fill="#8BD9FF"/>
<path d="M70 50H75V55H70V50Z" fill="#8BD9FF"/>
<path d="M100 45H105V50H100V45Z" fill="#8BD9FF"/>
<path d="M90 45H95V50H90V45Z" fill="#8BD9FF"/>
<path d="M105 45H110V50H105V45Z" fill="#8BD9FF"/>
<path d="M95 45H100V50H95V45Z" fill="#8BD9FF"/>
<path d="M85 45H90V50H85V45Z" fill="#8BD9FF"/>
<path d="M80 45H85V50H80V45Z" fill="#8BD9FF"/>
<path d="M75 45H80V50H75V45Z" fill="#8BD9FF"/>
<path d="M140 45H145V50H140V45Z" fill="#8BD9FF"/>
<path d="M135 45H140V50H135V45Z" fill="#8BD9FF"/>
<path d="M130 45H135V50H130V45Z" fill="#8BD9FF"/>
<path d="M125 45H130V50H125V45Z" fill="#8BD9FF"/>
<path d="M120 45H125V50H120V45Z" fill="#8BD9FF"/>
<path d="M115 45H120V50H115V45Z" fill="#8BD9FF"/>
<path d="M110 45H115V50H110V45Z" fill="#8BD9FF"/>
<path d="M145 45H150V50H145V45Z" fill="#8BD9FF"/>
<path d="M150 45H155V50H150V45Z" fill="#8BD9FF"/>
<path d="M170 45H175V50H170V45Z" fill="#8BD9FF"/>
<path d="M175 45H180V50H175V45Z" fill="#8BD9FF"/>
<path d="M165 45H170V50H165V45Z" fill="#8BD9FF"/>
<path d="M160 45H165V50H160V45Z" fill="#8BD9FF"/>
<path d="M155 45H160V50H155V45Z" fill="#8BD9FF"/>
<path d="M195 45H200V50H195V45Z" fill="#8BD9FF"/>
<path d="M200 45H205V50H200V45Z" fill="#8BD9FF"/>
<path d="M205 45H210V50H205V45Z" fill="#8BD9FF"/>
<path d="M210 45H215V50H210V45Z" fill="#8BD9FF"/>
<path d="M190 45H195V50H190V45Z" fill="#8BD9FF"/>
<path d="M185 45H190V50H185V45Z" fill="#8BD9FF"/>
<path d="M180 45H185V50H180V45Z" fill="#8BD9FF"/>
<path d="M215 45H220V50H215V45Z" fill="#8BD9FF"/>
<path d="M235 45H240V50H235V45Z" fill="#8BD9FF"/>
<path d="M240 45H245V50H240V45Z" fill="#8BD9FF"/>
<path d="M245 45H250V50H245V45Z" fill="#8BD9FF"/>
<path d="M230 45H235V50H230V45Z" fill="#8BD9FF"/>
<path d="M225 45H230V50H225V45Z" fill="#8BD9FF"/>
<path d="M220 45H225V50H220V45Z" fill="#8BD9FF"/>
<path d="M100 50H105V55H100V50Z" fill="#8BD9FF"/>
<path d="M90 50H95V55H90V50Z" fill="#8BD9FF"/>
<path d="M105 50H110V55H105V50Z" fill="#8BD9FF"/>
<path d="M95 50H100V55H95V50Z" fill="#8BD9FF"/>
<path d="M85 50H90V55H85V50Z" fill="#8BD9FF"/>
<path d="M80 50H85V55H80V50Z" fill="#8BD9FF"/>
<path d="M75 50H80V55H75V50Z" fill="#8BD9FF"/>
<path d="M140 50H145V55H140V50Z" fill="#8BD9FF"/>
<path d="M135 50H140V55H135V50Z" fill="#8BD9FF"/>
<path d="M130 50H135V55H130V50Z" fill="#8BD9FF"/>
<path d="M125 50H130V55H125V50Z" fill="#8BD9FF"/>
<path d="M120 50H125V55H120V50Z" fill="#8BD9FF"/>
<path d="M115 50H120V55H115V50Z" fill="#8BD9FF"/>
<path d="M110 50H115V55H110V50Z" fill="#8BD9FF"/>
<path d="M145 50H150V55H145V50Z" fill="#8BD9FF"/>
<path d="M150 50H155V55H150V50Z" fill="#8BD9FF"/>
<path d="M170 50H175V55H170V50Z" fill="#8BD9FF"/>
<path d="M175 50H180V55H175V50Z" fill="#8BD9FF"/>
<path d="M165 50H170V55H165V50Z" fill="#8BD9FF"/>
<path d="M160 50H165V55H160V50Z" fill="#8BD9FF"/>
<path d="M155 50H160V55H155V50Z" fill="#8BD9FF"/>
<path d="M195 50H200V55H195V50Z" fill="#8BD9FF"/>
<path d="M200 50H205V55H200V50Z" fill="#8BD9FF"/>
<path d="M205 50H210V55H205V50Z" fill="#8BD9FF"/>
<path d="M210 50H215V55H210V50Z" fill="#8BD9FF"/>
<path d="M190 50H195V55H190V50Z" fill="#8BD9FF"/>
<path d="M185 50H190V55H185V50Z" fill="#8BD9FF"/>
<path d="M180 50H185V55H180V50Z" fill="#8BD9FF"/>
<path d="M215 50H220V55H215V50Z" fill="#8BD9FF"/>
<path d="M235 50H240V55H235V50Z" fill="#8BD9FF"/>
<path d="M240 50H245V55H240V50Z" fill="#8BD9FF"/>
<path d="M245 50H250V55H245V50Z" fill="#8BD9FF"/>
<path d="M230 50H235V55H230V50Z" fill="#8BD9FF"/>
<path d="M225 50H230V55H225V50Z" fill="#8BD9FF"/>
<path d="M220 50H225V55H220V50Z" fill="#8BD9FF"/>
<path d="M100 55H105V60H100V55Z" fill="#8BD9FF"/>
<path d="M90 55H95V60H90V55Z" fill="#8BD9FF"/>
<path d="M70 55H75V60H70V55Z" fill="#8BD9FF"/>
<path d="M70 60H75V65H70V60Z" fill="#8BD9FF"/>
<path d="M70 65H75V70H70V65Z" fill="#8BD9FF"/>
<path d="M65 55H70V60H65V55Z" fill="#8BD9FF"/>
<path d="M65 60H70V65H65V60Z" fill="#8BD9FF"/>
<path d="M65 65H70V70H65V65Z" fill="#8BD9FF"/>
<path d="M105 55H110V60H105V55Z" fill="#8BD9FF"/>
<path d="M95 55H100V60H95V55Z" fill="#8BD9FF"/>
<path d="M85 55H90V60H85V55Z" fill="#8BD9FF"/>
<path d="M80 55H85V60H80V55Z" fill="#8BD9FF"/>
<path d="M75 55H80V60H75V55Z" fill="#8BD9FF"/>
<path d="M140 55H145V60H140V55Z" fill="#8BD9FF"/>
<path d="M135 55H140V60H135V55Z" fill="#8BD9FF"/>
<path d="M130 55H135V60H130V55Z" fill="#B6E6FE"/>
<path d="M125 55H130V60H125V55Z" fill="#B6E6FE"/>
<path d="M120 55H125V60H120V55Z" fill="#B6E6FE"/>
<path d="M115 55H120V60H115V55Z" fill="#B6E6FE"/>
<path d="M110 55H115V60H110V55Z" fill="#B6E6FE"/>
<path d="M145 55H150V60H145V55Z" fill="#8BD9FF"/>
<path d="M150 55H155V60H150V55Z" fill="#8BD9FF"/>
<path d="M170 55H175V60H170V55Z" fill="#8BD9FF"/>
<path d="M175 55H180V60H175V55Z" fill="#8BD9FF"/>
<path d="M165 55H170V60H165V55Z" fill="#8BD9FF"/>
<path d="M160 55H165V60H160V55Z" fill="#8BD9FF"/>
<path d="M155 55H160V60H155V55Z" fill="#8BD9FF"/>
<path d="M195 55H200V60H195V55Z" fill="#8BD9FF"/>
<path d="M200 55H205V60H200V55Z" fill="#8BD9FF"/>
<path d="M205 55H210V60H205V55Z" fill="#B6E6FE"/>
<path d="M210 55H215V60H210V55Z" fill="#B6E6FE"/>
<path d="M190 55H195V60H190V55Z" fill="#8BD9FF"/>
<path d="M185 55H190V60H185V55Z" fill="#8BD9FF"/>
<path d="M180 55H185V60H180V55Z" fill="#8BD9FF"/>
<path d="M215 55H220V60H215V55Z" fill="#B6E6FE"/>
<path d="M235 55H240V60H235V55Z" fill="#8BD9FF"/>
<path d="M240 55H245V60H240V55Z" fill="#8BD9FF"/>
<path d="M245 55H250V60H245V55Z" fill="#8BD9FF"/>
<path d="M230 55H235V60H230V55Z" fill="#8BD9FF"/>
<path d="M225 55H230V60H225V55Z" fill="#8BD9FF"/>
<path d="M220 55H225V60H220V55Z" fill="#8BD9FF"/>
<path d="M100 60H105V65H100V60Z" fill="#B6E6FE"/>
<path d="M90 60H95V65H90V60Z" fill="#8BD9FF"/>
<path d="M105 60H110V65H105V60Z" fill="#B6E6FE"/>
<path d="M95 60H100V65H95V60Z" fill="#B6E6FE"/>
<path d="M85 60H90V65H85V60Z" fill="#8BD9FF"/>
<path d="M80 60H85V65H80V60Z" fill="#8BD9FF"/>
<path d="M75 60H80V65H75V60Z" fill="#8BD9FF"/>
<path d="M140 60H145V65H140V60Z" fill="#B6E6FE"/>
<path d="M135 60H140V65H135V60Z" fill="#B6E6FE"/>
<path d="M130 60H135V65H130V60Z" fill="#8BD9FF"/>
<path d="M125 60H130V65H125V60Z" fill="#8BD9FF"/>
<path d="M120 60H125V65H120V60Z" fill="#8BD9FF"/>
<path d="M115 60H120V65H115V60Z" fill="#8BD9FF"/>
<path d="M110 60H115V65H110V60Z" fill="#8BD9FF"/>
<path d="M145 60H150V65H145V60Z" fill="#B6E6FE"/>
<path d="M150 60H155V65H150V60Z" fill="#8BD9FF"/>
<path d="M170 60H175V65H170V60Z" fill="#8BD9FF"/>
<path d="M175 60H180V65H175V60Z" fill="#8BD9FF"/>
<path d="M165 60H170V65H165V60Z" fill="#8BD9FF"/>
<path d="M160 60H165V65H160V60Z" fill="#8BD9FF"/>
<path d="M155 60H160V65H155V60Z" fill="#8BD9FF"/>
<path d="M195 60H200V65H195V60Z" fill="#B6E6FE"/>
<path d="M200 60H205V65H200V60Z" fill="#B6E6FE"/>
<path d="M205 60H210V65H205V60Z" fill="#8BD9FF"/>
<path d="M210 60H215V65H210V60Z" fill="#8BD9FF"/>
<path d="M190 60H195V65H190V60Z" fill="#B6E6FE"/>
<path d="M185 60H190V65H185V60Z" fill="#8BD9FF"/>
<path d="M180 60H185V65H180V60Z" fill="#8BD9FF"/>
<path d="M215 60H220V65H215V60Z" fill="#8BD9FF"/>
<path d="M235 60H240V65H235V60Z" fill="#8BD9FF"/>
<path d="M240 60H245V65H240V60Z" fill="#8BD9FF"/>
<path d="M245 60H250V65H245V60Z" fill="#8BD9FF"/>
<path d="M230 60H235V65H230V60Z" fill="#8BD9FF"/>
<path d="M225 60H230V65H225V60Z" fill="#8BD9FF"/>
<path d="M220 60H225V65H220V60Z" fill="#B6E6FE"/>
<path d="M100 65H105V70H100V65Z" fill="#8BD9FF"/>
<path d="M90 65H95V70H90V65Z" fill="#8BD9FF"/>
<path d="M105 65H110V70H105V65Z" fill="#8BD9FF"/>
<path d="M95 65H100V70H95V65Z" fill="#8BD9FF"/>
<path d="M85 65H90V70H85V65Z" fill="#8BD9FF"/>
<path d="M80 65H85V70H80V65Z" fill="#8BD9FF"/>
<path d="M75 65H80V70H75V65Z" fill="#8BD9FF"/>
<path d="M140 65H145V70H140V65Z" fill="#8BD9FF"/>
<path d="M135 65H140V70H135V65Z" fill="#8BD9FF"/>
<path d="M130 65H135V70H130V65Z" fill="#8BD9FF"/>
<path d="M125 65H130V70H125V65Z" fill="#8BD9FF"/>
<path d="M120 65H125V70H120V65Z" fill="#8BD9FF"/>
<path d="M115 65H120V70H115V65Z" fill="#8BD9FF"/>
<path d="M110 65H115V70H110V65Z" fill="#8BD9FF"/>
<path d="M145 65H150V70H145V65Z" fill="#8BD9FF"/>
<path d="M150 65H155V70H150V65Z" fill="#8BD9FF"/>
<path d="M170 65H175V70H170V65Z" fill="#8BD9FF"/>
<path d="M175 65H180V70H175V65Z" fill="#8BD9FF"/>
<path d="M165 65H170V70H165V65Z" fill="#8BD9FF"/>
<path d="M160 65H165V70H160V65Z" fill="#8BD9FF"/>
<path d="M155 65H160V70H155V65Z" fill="#8BD9FF"/>
<path d="M195 65H200V70H195V65Z" fill="#8BD9FF"/>
<path d="M200 65H205V70H200V65Z" fill="#8BD9FF"/>
<path d="M205 65H210V70H205V65Z" fill="#8BD9FF"/>
<path d="M210 65H215V70H210V65Z" fill="#8BD9FF"/>
<path d="M190 65H195V70H190V65Z" fill="#8BD9FF"/>
<path d="M185 65H190V70H185V65Z" fill="#8BD9FF"/>
<path d="M180 65H185V70H180V65Z" fill="#8BD9FF"/>
<path d="M215 65H220V70H215V65Z" fill="#8BD9FF"/>
<path d="M235 65H240V70H235V65Z" fill="#8BD9FF"/>
<path d="M240 65H245V70H240V65Z" fill="#8BD9FF"/>
<path d="M245 65H250V70H245V65Z" fill="#8BD9FF"/>
<path d="M230 65H235V70H230V65Z" fill="#8BD9FF"/>
<path d="M225 65H230V70H225V65Z" fill="#8BD9FF"/>
<path d="M220 65H225V70H220V65Z" fill="#8BD9FF"/>
<path d="M70 70H75V75H70V70Z" fill="#8BD9FF"/>
<path d="M65 70H70V75H65V70Z" fill="#8BD9FF"/>
<path d="M100 70H105V75H100V70Z" fill="#8BD9FF"/>
<path d="M90 70H95V75H90V70Z" fill="#8BD9FF"/>
<path d="M105 70H110V75H105V70Z" fill="#8BD9FF"/>
<path d="M95 70H100V75H95V70Z" fill="#8BD9FF"/>
<path d="M85 70H90V75H85V70Z" fill="#8BD9FF"/>
<path d="M80 70H85V75H80V70Z" fill="#8BD9FF"/>
<path d="M75 70H80V75H75V70Z" fill="#8BD9FF"/>
<path d="M140 70H145V75H140V70Z" fill="#8BD9FF"/>
<path d="M135 70H140V75H135V70Z" fill="#8BD9FF"/>
<path d="M130 70H135V75H130V70Z" fill="#8BD9FF"/>
<path d="M125 70H130V75H125V70Z" fill="#8BD9FF"/>
<path d="M120 70H125V75H120V70Z" fill="#8BD9FF"/>
<path d="M115 70H120V75H115V70Z" fill="#8BD9FF"/>
<path d="M110 70H115V75H110V70Z" fill="#8BD9FF"/>
<path d="M145 70H150V75H145V70Z" fill="#8BD9FF"/>
<path d="M150 70H155V75H150V70Z" fill="#8BD9FF"/>
<path d="M170 70H175V75H170V70Z" fill="#8BD9FF"/>
<path d="M175 70H180V75H175V70Z" fill="#8BD9FF"/>
<path d="M165 70H170V75H165V70Z" fill="#8BD9FF"/>
<path d="M160 70H165V75H160V70Z" fill="#8BD9FF"/>
<path d="M155 70H160V75H155V70Z" fill="#8BD9FF"/>
<path d="M195 70H200V75H195V70Z" fill="#8BD9FF"/>
<path d="M200 70H205V75H200V70Z" fill="#8BD9FF"/>
<path d="M205 70H210V75H205V70Z" fill="#8BD9FF"/>
<path d="M210 70H215V75H210V70Z" fill="#8BD9FF"/>
<path d="M190 70H195V75H190V70Z" fill="#8BD9FF"/>
<path d="M185 70H190V75H185V70Z" fill="#8BD9FF"/>
<path d="M180 70H185V75H180V70Z" fill="#8BD9FF"/>
<path d="M215 70H220V75H215V70Z" fill="#8BD9FF"/>
<path d="M235 70H240V75H235V70Z" fill="#8BD9FF"/>
<path d="M240 70H245V75H240V70Z" fill="#8BD9FF"/>
<path d="M245 70H250V75H245V70Z" fill="#8BD9FF"/>
<path d="M230 70H235V75H230V70Z" fill="#8BD9FF"/>
<path d="M225 70H230V75H225V70Z" fill="#8BD9FF"/>
<path d="M220 70H225V75H220V70Z" fill="#8BD9FF"/>
<path d="M0 55H5V60H0V55Z" fill="#8BD9FF"/>
<path d="M0 70H5V75H0V70Z" fill="#8BD9FF"/>
<path d="M55 115H60V120H55V115Z" fill="#B6E6FE"/>
<path d="M55 120H60V125H55V120Z" fill="#8BD9FF"/>
<path d="M55 125H60V130H55V125Z" fill="#8BD9FF"/>
<path d="M50 130H55V135H50V130Z" fill="#8BD9FF"/>
<path d="M20 120H25V125H20V120Z" fill="#8BD9FF"/>
<path d="M20 135H25V140H20V135Z" fill="#8BD9FF"/>
<path d="M50 135H55V140H50V135Z" fill="#8BD9FF"/>
<path d="M20 110H25V115H20V110Z" fill="#8BD9FF"/>
<path d="M20 125H25V130H20V125Z" fill="#8BD9FF"/>
<path d="M50 110H55V115H50V110Z" fill="#8BD9FF"/>
<path d="M20 115H25V120H20V115Z" fill="#8BD9FF"/>
<path d="M20 130H25V135H20V130Z" fill="#8BD9FF"/>
<path d="M60 115H65V120H60V115Z" fill="#B6E6FE"/>
<path d="M60 120H65V125H60V120Z" fill="#8BD9FF"/>
<path d="M60 125H65V130H60V125Z" fill="#8BD9FF"/>
<path d="M55 135H60V140H55V135Z" fill="#8BD9FF"/>
<path d="M25 110H30V115H25V110Z" fill="#8BD9FF"/>
<path d="M25 125H30V130H25V125Z" fill="#8BD9FF"/>
<path d="M55 130H60V135H55V130Z" fill="#8BD9FF"/>
<path d="M25 120H30V125H25V120Z" fill="#8BD9FF"/>
<path d="M25 135H30V140H25V135Z" fill="#8BD9FF"/>
<path d="M55 110H60V115H55V110Z" fill="#8BD9FF"/>
<path d="M25 115H30V120H25V115Z" fill="#8BD9FF"/>
<path d="M25 130H30V135H25V130Z" fill="#8BD9FF"/>
<path d="M50 115H55V120H50V115Z" fill="#B6E6FE"/>
<path d="M50 120H55V125H50V120Z" fill="#8BD9FF"/>
<path d="M45 135H50V140H45V135Z" fill="#8BD9FF"/>
<path d="M15 110H20V115H15V110Z" fill="#8BD9FF"/>
<path d="M15 125H20V130H15V125Z" fill="#8BD9FF"/>
<path d="M50 125H55V130H50V125Z" fill="#8BD9FF"/>
<path d="M45 130H50V135H45V130Z" fill="#8BD9FF"/>
<path d="M15 120H20V125H15V120Z" fill="#8BD9FF"/>
<path d="M15 135H20V140H15V135Z" fill="#8BD9FF"/>
<path d="M45 110H50V115H45V110Z" fill="#8BD9FF"/>
<path d="M15 115H20V120H15V115Z" fill="#8BD9FF"/>
<path d="M15 130H20V135H15V130Z" fill="#8BD9FF"/>
<path d="M45 115H50V120H45V115Z" fill="#8BD9FF"/>
<path d="M40 135H45V140H40V135Z" fill="#8BD9FF"/>
<path d="M10 110H15V115H10V110Z" fill="#8BD9FF"/>
<path d="M10 125H15V130H10V125Z" fill="#8BD9FF"/>
<path d="M45 120H50V125H45V120Z" fill="#B6E6FE"/>
<path d="M45 125H50V130H45V125Z" fill="#8BD9FF"/>
<path d="M40 130H45V135H40V130Z" fill="#8BD9FF"/>
<path d="M10 120H15V125H10V120Z" fill="#8BD9FF"/>
<path d="M10 135H15V140H10V135Z" fill="#8BD9FF"/>
<path d="M40 110H45V115H40V110Z" fill="#8BD9FF"/>
<path d="M10 115H15V120H10V115Z" fill="#8BD9FF"/>
<path d="M10 130H15V135H10V130Z" fill="#8BD9FF"/>
<path d="M35 135H40V140H35V135Z" fill="#8BD9FF"/>
<path d="M5 110H10V115H5V110Z" fill="#8BD9FF"/>
<path d="M5 125H10V130H5V125Z" fill="#8BD9FF"/>
<path d="M40 115H45V120H40V115Z" fill="#8BD9FF"/>
<path d="M40 120H45V125H40V120Z" fill="#B6E6FE"/>
<path d="M40 125H45V130H40V125Z" fill="#8BD9FF"/>
<path d="M35 130H40V135H35V130Z" fill="#8BD9FF"/>
<path d="M5 120H10V125H5V120Z" fill="#8BD9FF"/>
<path d="M5 135H10V140H5V135Z" fill="#8BD9FF"/>
<path d="M35 110H40V115H35V110Z" fill="#8BD9FF"/>
<path d="M5 115H10V120H5V115Z" fill="#8BD9FF"/>
<path d="M5 130H10V135H5V130Z" fill="#8BD9FF"/>
<path d="M0 110H5V115H0V110Z" fill="#8BD9FF"/>
<path d="M0 125H5V130H0V125Z" fill="#8BD9FF"/>
<path d="M35 115H40V120H35V115Z" fill="#8BD9FF"/>
<path d="M35 120H40V125H35V120Z" fill="#8BD9FF"/>
<path d="M35 125H40V130H35V125Z" fill="#8BD9FF"/>
<path d="M30 135H35V140H30V135Z" fill="#8BD9FF"/>
<path d="M30 130H35V135H30V130Z" fill="#8BD9FF"/>
<path d="M30 110H35V115H30V110Z" fill="#8BD9FF"/>
<path d="M30 115H35V120H30V115Z" fill="#8BD9FF"/>
<path d="M30 120H35V125H30V120Z" fill="#8BD9FF"/>
<path d="M30 125H35V130H30V125Z" fill="#8BD9FF"/>
<path d="M60 110H65V115H60V110Z" fill="#8BD9FF"/>
<path d="M60 135H65V140H60V135Z" fill="#8BD9FF"/>
<path d="M60 130H65V135H60V130Z" fill="#8BD9FF"/>
<path d="M65 110H70V115H65V110Z" fill="#8BD9FF"/>
<path d="M65 115H70V120H65V115Z" fill="#8BD9FF"/>
<path d="M70 110H75V115H70V110Z" fill="#8BD9FF"/>
<path d="M70 115H75V120H70V115Z" fill="#8BD9FF"/>
<path d="M100 110H105V115H100V110Z" fill="#8BD9FF"/>
<path d="M90 110H95V115H90V110Z" fill="#8BD9FF"/>
<path d="M105 110H110V115H105V110Z" fill="#8BD9FF"/>
<path d="M95 110H100V115H95V110Z" fill="#8BD9FF"/>
<path d="M85 110H90V115H85V110Z" fill="#8BD9FF"/>
<path d="M80 110H85V115H80V110Z" fill="#8BD9FF"/>
<path d="M75 110H80V115H75V110Z" fill="#8BD9FF"/>
<path d="M140 110H145V115H140V110Z" fill="#8BD9FF"/>
<path d="M135 110H140V115H135V110Z" fill="#8BD9FF"/>
<path d="M130 110H135V115H130V110Z" fill="#8BD9FF"/>
<path d="M125 110H130V115H125V110Z" fill="#8BD9FF"/>
<path d="M120 110H125V115H120V110Z" fill="#8BD9FF"/>
<path d="M115 110H120V115H115V110Z" fill="#8BD9FF"/>
<path d="M110 110H115V115H110V110Z" fill="#8BD9FF"/>
<path d="M145 110H150V115H145V110Z" fill="#8BD9FF"/>
<path d="M150 110H155V115H150V110Z" fill="#8BD9FF"/>
<path d="M170 110H175V115H170V110Z" fill="#B6E6FE"/>
<path d="M175 110H180V115H175V110Z" fill="#B6E6FE"/>
<path d="M165 110H170V115H165V110Z" fill="#8BD9FF"/>
<path d="M160 110H165V115H160V110Z" fill="#8BD9FF"/>
<path d="M155 110H160V115H155V110Z" fill="#8BD9FF"/>
<path d="M195 110H200V115H195V110Z" fill="#B6E6FE"/>
<path d="M200 110H205V115H200V110Z" fill="#8BD9FF"/>
<path d="M205 110H210V115H205V110Z" fill="#8BD9FF"/>
<path d="M210 110H215V115H210V110Z" fill="#8BD9FF"/>
<path d="M190 110H195V115H190V110Z" fill="#B6E6FE"/>
<path d="M185 110H190V115H185V110Z" fill="#B6E6FE"/>
<path d="M180 110H185V115H180V110Z" fill="#B6E6FE"/>
<path d="M215 110H220V115H215V110Z" fill="#8BD9FF"/>
<path d="M235 110H240V115H235V110Z" fill="#8BD9FF"/>
<path d="M240 110H245V115H240V110Z" fill="#8BD9FF"/>
<path d="M245 110H250V115H245V110Z" fill="#8BD9FF"/>
<path d="M230 110H235V115H230V110Z" fill="#8BD9FF"/>
<path d="M225 110H230V115H225V110Z" fill="#8BD9FF"/>
<path d="M220 110H225V115H220V110Z" fill="#8BD9FF"/>
<path d="M100 115H105V120H100V115Z" fill="#8BD9FF"/>
<path d="M90 115H95V120H90V115Z" fill="#8BD9FF"/>
<path d="M105 115H110V120H105V115Z" fill="#8BD9FF"/>
<path d="M95 115H100V120H95V115Z" fill="#8BD9FF"/>
<path d="M85 115H90V120H85V115Z" fill="#8BD9FF"/>
<path d="M80 115H85V120H80V115Z" fill="#8BD9FF"/>
<path d="M75 115H80V120H75V115Z" fill="#8BD9FF"/>
<path d="M140 115H145V120H140V115Z" fill="#8BD9FF"/>
<path d="M135 115H140V120H135V115Z" fill="#8BD9FF"/>
<path d="M130 115H135V120H130V115Z" fill="#8BD9FF"/>
<path d="M125 115H130V120H125V115Z" fill="#8BD9FF"/>
<path d="M120 115H125V120H120V115Z" fill="#8BD9FF"/>
<path d="M115 115H120V120H115V115Z" fill="#8BD9FF"/>
<path d="M110 115H115V120H110V115Z" fill="#8BD9FF"/>
<path d="M145 115H150V120H145V115Z" fill="#8BD9FF"/>
<path d="M150 115H155V120H150V115Z" fill="#8BD9FF"/>
<path d="M170 115H175V120H170V115Z" fill="#8BD9FF"/>
<path d="M175 115H180V120H175V115Z" fill="#8BD9FF"/>
<path d="M165 115H170V120H165V115Z" fill="#8BD9FF"/>
<path d="M160 115H165V120H160V115Z" fill="#8BD9FF"/>
<path d="M155 115H160V120H155V115Z" fill="#8BD9FF"/>
<path d="M195 115H200V120H195V115Z" fill="#8BD9FF"/>
<path d="M200 115H205V120H200V115Z" fill="#8BD9FF"/>
<path d="M205 115H210V120H205V115Z" fill="#8BD9FF"/>
<path d="M210 115H215V120H210V115Z" fill="#8BD9FF"/>
<path d="M190 115H195V120H190V115Z" fill="#8BD9FF"/>
<path d="M185 115H190V120H185V115Z" fill="#8BD9FF"/>
<path d="M180 115H185V120H180V115Z" fill="#8BD9FF"/>
<path d="M215 115H220V120H215V115Z" fill="#8BD9FF"/>
<path d="M235 115H240V120H235V115Z" fill="#8BD9FF"/>
<path d="M240 115H245V120H240V115Z" fill="#8BD9FF"/>
<path d="M245 115H250V120H245V115Z" fill="#8BD9FF"/>
<path d="M230 115H235V120H230V115Z" fill="#8BD9FF"/>
<path d="M225 115H230V120H225V115Z" fill="#8BD9FF"/>
<path d="M220 115H225V120H220V115Z" fill="#8BD9FF"/>
<path d="M100 120H105V125H100V120Z" fill="#8BD9FF"/>
<path d="M90 120H95V125H90V120Z" fill="#8BD9FF"/>
<path d="M70 120H75V125H70V120Z" fill="#B6E6FE"/>
<path d="M70 125H75V130H70V125Z" fill="#8BD9FF"/>
<path d="M70 130H75V135H70V130Z" fill="#8BD9FF"/>
<path d="M65 120H70V125H65V120Z" fill="#B6E6FE"/>
<path d="M65 125H70V130H65V125Z" fill="#8BD9FF"/>
<path d="M65 130H70V135H65V130Z" fill="#8BD9FF"/>
<path d="M105 120H110V125H105V120Z" fill="#8BD9FF"/>
<path d="M95 120H100V125H95V120Z" fill="#8BD9FF"/>
<path d="M85 120H90V125H85V120Z" fill="#8BD9FF"/>
<path d="M80 120H85V125H80V120Z" fill="#8BD9FF"/>
<path d="M75 120H80V125H75V120Z" fill="#8BD9FF"/>
<path d="M140 120H145V125H140V120Z" fill="#8BD9FF"/>
<path d="M135 120H140V125H135V120Z" fill="#8BD9FF"/>
<path d="M130 120H135V125H130V120Z" fill="#8BD9FF"/>
<path d="M125 120H130V125H125V120Z" fill="#8BD9FF"/>
<path d="M120 120H125V125H120V120Z" fill="#8BD9FF"/>
<path d="M115 120H120V125H115V120Z" fill="#8BD9FF"/>
<path d="M110 120H115V125H110V120Z" fill="#8BD9FF"/>
<path d="M145 120H150V125H145V120Z" fill="#8BD9FF"/>
<path d="M150 120H155V125H150V120Z" fill="#8BD9FF"/>
<path d="M170 120H175V125H170V120Z" fill="#8BD9FF"/>
<path d="M175 120H180V125H175V120Z" fill="#8BD9FF"/>
<path d="M165 120H170V125H165V120Z" fill="#8BD9FF"/>
<path d="M160 120H165V125H160V120Z" fill="#8BD9FF"/>
<path d="M155 120H160V125H155V120Z" fill="#8BD9FF"/>
<path d="M195 120H200V125H195V120Z" fill="#8BD9FF"/>
<path d="M200 120H205V125H200V120Z" fill="#8BD9FF"/>
<path d="M205 120H210V125H205V120Z" fill="#8BD9FF"/>
<path d="M210 120H215V125H210V120Z" fill="#8BD9FF"/>
<path d="M190 120H195V125H190V120Z" fill="#8BD9FF"/>
<path d="M185 120H190V125H185V120Z" fill="#8BD9FF"/>
<path d="M180 120H185V125H180V120Z" fill="#8BD9FF"/>
<path d="M215 120H220V125H215V120Z" fill="#8BD9FF"/>
<path d="M235 120H240V125H235V120Z" fill="#8BD9FF"/>
<path d="M240 120H245V125H240V120Z" fill="#8BD9FF"/>
<path d="M245 120H250V125H245V120Z" fill="#8BD9FF"/>
<path d="M230 120H235V125H230V120Z" fill="#8BD9FF"/>
<path d="M225 120H230V125H225V120Z" fill="#8BD9FF"/>
<path d="M220 120H225V125H220V120Z" fill="#8BD9FF"/>
<path d="M100 125H105V130H100V125Z" fill="#8BD9FF"/>
<path d="M90 125H95V130H90V125Z" fill="#8BD9FF"/>
<path d="M105 125H110V130H105V125Z" fill="#8BD9FF"/>
<path d="M95 125H100V130H95V125Z" fill="#8BD9FF"/>
<path d="M85 125H90V130H85V125Z" fill="#8BD9FF"/>
<path d="M80 125H85V130H80V125Z" fill="#8BD9FF"/>
<path d="M75 125H80V130H75V125Z" fill="#8BD9FF"/>
<path d="M140 125H145V130H140V125Z" fill="#8BD9FF"/>
<path d="M135 125H140V130H135V125Z" fill="#8BD9FF"/>
<path d="M130 125H135V130H130V125Z" fill="#8BD9FF"/>
<path d="M125 125H130V130H125V125Z" fill="#8BD9FF"/>
<path d="M120 125H125V130H120V125Z" fill="#8BD9FF"/>
<path d="M115 125H120V130H115V125Z" fill="#8BD9FF"/>
<path d="M110 125H115V130H110V125Z" fill="#8BD9FF"/>
<path d="M145 125H150V130H145V125Z" fill="#8BD9FF"/>
<path d="M150 125H155V130H150V125Z" fill="#8BD9FF"/>
<path d="M170 125H175V130H170V125Z" fill="#8BD9FF"/>
<path d="M175 125H180V130H175V125Z" fill="#8BD9FF"/>
<path d="M165 125H170V130H165V125Z" fill="#8BD9FF"/>
<path d="M160 125H165V130H160V125Z" fill="#8BD9FF"/>
<path d="M155 125H160V130H155V125Z" fill="#8BD9FF"/>
<path d="M195 125H200V130H195V125Z" fill="#8BD9FF"/>
<path d="M200 125H205V130H200V125Z" fill="#8BD9FF"/>
<path d="M205 125H210V130H205V125Z" fill="#8BD9FF"/>
<path d="M210 125H215V130H210V125Z" fill="#8BD9FF"/>
<path d="M190 125H195V130H190V125Z" fill="#8BD9FF"/>
<path d="M185 125H190V130H185V125Z" fill="#8BD9FF"/>
<path d="M180 125H185V130H180V125Z" fill="#8BD9FF"/>
<path d="M215 125H220V130H215V125Z" fill="#8BD9FF"/>
<path d="M235 125H240V130H235V125Z" fill="#8BD9FF"/>
<path d="M240 125H245V130H240V125Z" fill="#8BD9FF"/>
<path d="M245 125H250V130H245V125Z" fill="#8BD9FF"/>
<path d="M230 125H235V130H230V125Z" fill="#8BD9FF"/>
<path d="M225 125H230V130H225V125Z" fill="#8BD9FF"/>
<path d="M220 125H225V130H220V125Z" fill="#8BD9FF"/>
<path d="M100 130H105V135H100V130Z" fill="#8BD9FF"/>
<path d="M90 130H95V135H90V130Z" fill="#8BD9FF"/>
<path d="M105 130H110V135H105V130Z" fill="#8BD9FF"/>
<path d="M95 130H100V135H95V130Z" fill="#8BD9FF"/>
<path d="M85 130H90V135H85V130Z" fill="#8BD9FF"/>
<path d="M80 130H85V135H80V130Z" fill="#8BD9FF"/>
<path d="M75 130H80V135H75V130Z" fill="#8BD9FF"/>
<path d="M140 130H145V135H140V130Z" fill="#8BD9FF"/>
<path d="M135 130H140V135H135V130Z" fill="#8BD9FF"/>
<path d="M130 130H135V135H130V130Z" fill="#8BD9FF"/>
<path d="M125 130H130V135H125V130Z" fill="#8BD9FF"/>
<path d="M120 130H125V135H120V130Z" fill="#8BD9FF"/>
<path d="M115 130H120V135H115V130Z" fill="#8BD9FF"/>
<path d="M110 130H115V135H110V130Z" fill="#8BD9FF"/>
<path d="M145 130H150V135H145V130Z" fill="#8BD9FF"/>
<path d="M150 130H155V135H150V130Z" fill="#8BD9FF"/>
<path d="M170 130H175V135H170V130Z" fill="#8BD9FF"/>
<path d="M175 130H180V135H175V130Z" fill="#8BD9FF"/>
<path d="M165 130H170V135H165V130Z" fill="#8BD9FF"/>
<path d="M160 130H165V135H160V130Z" fill="#8BD9FF"/>
<path d="M155 130H160V135H155V130Z" fill="#8BD9FF"/>
<path d="M195 130H200V135H195V130Z" fill="#8BD9FF"/>
<path d="M200 130H205V135H200V130Z" fill="#8BD9FF"/>
<path d="M205 130H210V135H205V130Z" fill="#8BD9FF"/>
<path d="M210 130H215V135H210V130Z" fill="#8BD9FF"/>
<path d="M190 130H195V135H190V130Z" fill="#8BD9FF"/>
<path d="M185 130H190V135H185V130Z" fill="#8BD9FF"/>
<path d="M180 130H185V135H180V130Z" fill="#8BD9FF"/>
<path d="M215 130H220V135H215V130Z" fill="#8BD9FF"/>
<path d="M235 130H240V135H235V130Z" fill="#8BD9FF"/>
<path d="M240 130H245V135H240V130Z" fill="#8BD9FF"/>
<path d="M245 130H250V135H245V130Z" fill="#8BD9FF"/>
<path d="M230 130H235V135H230V130Z" fill="#8BD9FF"/>
<path d="M225 130H230V135H225V130Z" fill="#8BD9FF"/>
<path d="M220 130H225V135H220V130Z" fill="#8BD9FF"/>
<path d="M70 135H75V140H70V135Z" fill="#8BD9FF"/>
<path d="M65 135H70V140H65V135Z" fill="#8BD9FF"/>
<path d="M100 135H105V140H100V135Z" fill="#8BD9FF"/>
<path d="M90 135H95V140H90V135Z" fill="#8BD9FF"/>
<path d="M105 135H110V140H105V135Z" fill="#8BD9FF"/>
<path d="M95 135H100V140H95V135Z" fill="#8BD9FF"/>
<path d="M85 135H90V140H85V135Z" fill="#8BD9FF"/>
<path d="M80 135H85V140H80V135Z" fill="#8BD9FF"/>
<path d="M75 135H80V140H75V135Z" fill="#8BD9FF"/>
<path d="M140 135H145V140H140V135Z" fill="#8BD9FF"/>
<path d="M135 135H140V140H135V135Z" fill="#8BD9FF"/>
<path d="M130 135H135V140H130V135Z" fill="#8BD9FF"/>
<path d="M125 135H130V140H125V135Z" fill="#8BD9FF"/>
<path d="M120 135H125V140H120V135Z" fill="#8BD9FF"/>
<path d="M115 135H120V140H115V135Z" fill="#8BD9FF"/>
<path d="M110 135H115V140H110V135Z" fill="#8BD9FF"/>
<path d="M145 135H150V140H145V135Z" fill="#8BD9FF"/>
<path d="M150 135H155V140H150V135Z" fill="#8BD9FF"/>
<path d="M170 135H175V140H170V135Z" fill="#8BD9FF"/>
<path d="M175 135H180V140H175V135Z" fill="#8BD9FF"/>
<path d="M165 135H170V140H165V135Z" fill="#8BD9FF"/>
<path d="M160 135H165V140H160V135Z" fill="#8BD9FF"/>
<path d="M155 135H160V140H155V135Z" fill="#8BD9FF"/>
<path d="M195 135H200V140H195V135Z" fill="#8BD9FF"/>
<path d="M200 135H205V140H200V135Z" fill="#8BD9FF"/>
<path d="M205 135H210V140H205V135Z" fill="#8BD9FF"/>
<path d="M210 135H215V140H210V135Z" fill="#8BD9FF"/>
<path d="M190 135H195V140H190V135Z" fill="#8BD9FF"/>
<path d="M185 135H190V140H185V135Z" fill="#8BD9FF"/>
<path d="M180 135H185V140H180V135Z" fill="#8BD9FF"/>
<path d="M215 135H220V140H215V135Z" fill="#8BD9FF"/>
<path d="M235 135H240V140H235V135Z" fill="#8BD9FF"/>
<path d="M240 135H245V140H240V135Z" fill="#8BD9FF"/>
<path d="M245 135H250V140H245V135Z" fill="#8BD9FF"/>
<path d="M230 135H235V140H230V135Z" fill="#8BD9FF"/>
<path d="M225 135H230V140H225V135Z" fill="#8BD9FF"/>
<path d="M220 135H225V140H220V135Z" fill="#8BD9FF"/>
<path d="M0 120H5V125H0V120Z" fill="#8BD9FF"/>
<path d="M0 135H5V140H0V135Z" fill="#8BD9FF"/>
<path d="M0 115H5V120H0V115Z" fill="#8BD9FF"/>
<path d="M0 130H5V135H0V130Z" fill="#8BD9FF"/>
<path d="M20 105H25V110H20V105Z" fill="#8BD9FF"/>
<path d="M50 105H55V110H50V105Z" fill="#8BD9FF"/>
<path d="M55 105H60V110H55V105Z" fill="#8BD9FF"/>
<path d="M25 105H30V110H25V105Z" fill="#8BD9FF"/>
<path d="M45 105H50V110H45V105Z" fill="#8BD9FF"/>
<path d="M15 105H20V110H15V105Z" fill="#8BD9FF"/>
<path d="M40 105H45V110H40V105Z" fill="#8BD9FF"/>
<path d="M10 105H15V110H10V105Z" fill="#8BD9FF"/>
<path d="M35 105H40V110H35V105Z" fill="#8BD9FF"/>
<path d="M5 105H10V110H5V105Z" fill="#8BD9FF"/>
<path d="M30 105H35V110H30V105Z" fill="#8BD9FF"/>
<path d="M60 105H65V110H60V105Z" fill="#8BD9FF"/>
<path d="M70 105H75V110H70V105Z" fill="#8BD9FF"/>
<path d="M65 105H70V110H65V105Z" fill="#8BD9FF"/>
<path d="M100 105H105V110H100V105Z" fill="#8BD9FF"/>
<path d="M90 105H95V110H90V105Z" fill="#8BD9FF"/>
<path d="M105 105H110V110H105V105Z" fill="#8BD9FF"/>
<path d="M95 105H100V110H95V105Z" fill="#8BD9FF"/>
<path d="M85 105H90V110H85V105Z" fill="#8BD9FF"/>
<path d="M80 105H85V110H80V105Z" fill="#8BD9FF"/>
<path d="M75 105H80V110H75V105Z" fill="#8BD9FF"/>
<path d="M140 105H145V110H140V105Z" fill="#8BD9FF"/>
<path d="M135 105H140V110H135V105Z" fill="#8BD9FF"/>
<path d="M130 105H135V110H130V105Z" fill="#8BD9FF"/>
<path d="M125 105H130V110H125V105Z" fill="#8BD9FF"/>
<path d="M120 105H125V110H120V105Z" fill="#8BD9FF"/>
<path d="M115 105H120V110H115V105Z" fill="#8BD9FF"/>
<path d="M110 105H115V110H110V105Z" fill="#8BD9FF"/>
<path d="M145 105H150V110H145V105Z" fill="#8BD9FF"/>
<path d="M150 105H155V110H150V105Z" fill="#8BD9FF"/>
<path d="M170 105H175V110H170V105Z" fill="#8BD9FF"/>
<path d="M175 105H180V110H175V105Z" fill="#8BD9FF"/>
<path d="M165 105H170V110H165V105Z" fill="#8BD9FF"/>
<path d="M160 105H165V110H160V105Z" fill="#8BD9FF"/>
<path d="M155 105H160V110H155V105Z" fill="#8BD9FF"/>
<path d="M195 105H200V110H195V105Z" fill="#8BD9FF"/>
<path d="M200 105H205V110H200V105Z" fill="#B6E6FE"/>
<path d="M205 105H210V110H205V105Z" fill="#B6E6FE"/>
<path d="M210 105H215V110H210V105Z" fill="#8BD9FF"/>
<path d="M190 105H195V110H190V105Z" fill="#8BD9FF"/>
<path d="M185 105H190V110H185V105Z" fill="#8BD9FF"/>
<path d="M180 105H185V110H180V105Z" fill="#8BD9FF"/>
<path d="M215 105H220V110H215V105Z" fill="#8BD9FF"/>
<path d="M235 105H240V110H235V105Z" fill="#8BD9FF"/>
<path d="M240 105H245V110H240V105Z" fill="#8BD9FF"/>
<path d="M245 105H250V110H245V105Z" fill="#8BD9FF"/>
<path d="M230 105H235V110H230V105Z" fill="#8BD9FF"/>
<path d="M225 105H230V110H225V105Z" fill="#8BD9FF"/>
<path d="M220 105H225V110H220V105Z" fill="#8BD9FF"/>
<path d="M0 105H5V110H0V105Z" fill="#8BD9FF"/>
<path d="M0 50H5V55H0V50Z" fill="#8BD9FF"/>
<path d="M55 40H60V45H55V40Z" fill="#8BD9FF"/>
<path d="M20 35H25V40H20V35Z" fill="#8BD9FF"/>
<path d="M50 35H55V40H50V35Z" fill="#8BD9FF"/>
<path d="M20 40H25V45H20V40Z" fill="#8BD9FF"/>
<path d="M60 40H65V45H60V40Z" fill="#8BD9FF"/>
<path d="M25 35H30V40H25V35Z" fill="#8BD9FF"/>
<path d="M55 35H60V40H55V35Z" fill="#8BD9FF"/>
<path d="M25 40H30V45H25V40Z" fill="#8BD9FF"/>
<path d="M50 40H55V45H50V40Z" fill="#8BD9FF"/>
<path d="M15 35H20V40H15V35Z" fill="#8BD9FF"/>
<path d="M45 35H50V40H45V35Z" fill="#8BD9FF"/>
<path d="M15 40H20V45H15V40Z" fill="#8BD9FF"/>
<path d="M45 40H50V45H45V40Z" fill="#8BD9FF"/>
<path d="M10 35H15V40H10V35Z" fill="#8BD9FF"/>
<path d="M40 35H45V40H40V35Z" fill="#8BD9FF"/>
<path d="M10 40H15V45H10V40Z" fill="#8BD9FF"/>
<path d="M5 35H10V40H5V35Z" fill="#8BD9FF"/>
<path d="M40 40H45V45H40V40Z" fill="#8BD9FF"/>
<path d="M35 35H40V40H35V35Z" fill="#8BD9FF"/>
<path d="M5 40H10V45H5V40Z" fill="#8BD9FF"/>
<path d="M0 35H5V40H0V35Z" fill="#8BD9FF"/>
<path d="M35 40H40V45H35V40Z" fill="#8BD9FF"/>
<path d="M30 35H35V40H30V35Z" fill="#8BD9FF"/>
<path d="M30 40H35V45H30V40Z" fill="#8BD9FF"/>
<path d="M60 35H65V40H60V35Z" fill="#8BD9FF"/>
<path d="M65 35H70V40H65V35Z" fill="#8BD9FF"/>
<path d="M65 40H70V45H65V40Z" fill="#8BD9FF"/>
<path d="M70 35H75V40H70V35Z" fill="#8BD9FF"/>
<path d="M70 40H75V45H70V40Z" fill="#8BD9FF"/>
<path d="M100 35H105V40H100V35Z" fill="#8BD9FF"/>
<path d="M90 35H95V40H90V35Z" fill="#8BD9FF"/>
<path d="M105 35H110V40H105V35Z" fill="#8BD9FF"/>
<path d="M95 35H100V40H95V35Z" fill="#8BD9FF"/>
<path d="M85 35H90V40H85V35Z" fill="#8BD9FF"/>
<path d="M80 35H85V40H80V35Z" fill="#8BD9FF"/>
<path d="M75 35H80V40H75V35Z" fill="#8BD9FF"/>
<path d="M140 35H145V40H140V35Z" fill="#8BD9FF"/>
<path d="M135 35H140V40H135V35Z" fill="#8BD9FF"/>
<path d="M130 35H135V40H130V35Z" fill="#8BD9FF"/>
<path d="M125 35H130V40H125V35Z" fill="#8BD9FF"/>
<path d="M120 35H125V40H120V35Z" fill="#8BD9FF"/>
<path d="M115 35H120V40H115V35Z" fill="#8BD9FF"/>
<path d="M110 35H115V40H110V35Z" fill="#8BD9FF"/>
<path d="M145 35H150V40H145V35Z" fill="#8BD9FF"/>
<path d="M150 35H155V40H150V35Z" fill="#8BD9FF"/>
<path d="M170 35H175V40H170V35Z" fill="#8BD9FF"/>
<path d="M175 35H180V40H175V35Z" fill="#8BD9FF"/>
<path d="M165 35H170V40H165V35Z" fill="#8BD9FF"/>
<path d="M160 35H165V40H160V35Z" fill="#8BD9FF"/>
<path d="M155 35H160V40H155V35Z" fill="#8BD9FF"/>
<path d="M195 35H200V40H195V35Z" fill="#8BD9FF"/>
<path d="M200 35H205V40H200V35Z" fill="#8BD9FF"/>
<path d="M205 35H210V40H205V35Z" fill="#8BD9FF"/>
<path d="M210 35H215V40H210V35Z" fill="#8BD9FF"/>
<path d="M190 35H195V40H190V35Z" fill="#8BD9FF"/>
<path d="M185 35H190V40H185V35Z" fill="#8BD9FF"/>
<path d="M180 35H185V40H180V35Z" fill="#8BD9FF"/>
<path d="M215 35H220V40H215V35Z" fill="#8BD9FF"/>
<path d="M235 35H240V40H235V35Z" fill="#8BD9FF"/>
<path d="M240 35H245V40H240V35Z" fill="#8BD9FF"/>
<path d="M245 35H250V40H245V35Z" fill="#8BD9FF"/>
<path d="M230 35H235V40H230V35Z" fill="#8BD9FF"/>
<path d="M225 35H230V40H225V35Z" fill="#8BD9FF"/>
<path d="M220 35H225V40H220V35Z" fill="#8BD9FF"/>
<path d="M100 40H105V45H100V40Z" fill="#8BD9FF"/>
<path d="M90 40H95V45H90V40Z" fill="#8BD9FF"/>
<path d="M105 40H110V45H105V40Z" fill="#8BD9FF"/>
<path d="M95 40H100V45H95V40Z" fill="#8BD9FF"/>
<path d="M85 40H90V45H85V40Z" fill="#8BD9FF"/>
<path d="M80 40H85V45H80V40Z" fill="#8BD9FF"/>
<path d="M75 40H80V45H75V40Z" fill="#8BD9FF"/>
<path d="M140 40H145V45H140V40Z" fill="#8BD9FF"/>
<path d="M135 40H140V45H135V40Z" fill="#8BD9FF"/>
<path d="M130 40H135V45H130V40Z" fill="#8BD9FF"/>
<path d="M125 40H130V45H125V40Z" fill="#8BD9FF"/>
<path d="M120 40H125V45H120V40Z" fill="#8BD9FF"/>
<path d="M115 40H120V45H115V40Z" fill="#8BD9FF"/>
<path d="M110 40H115V45H110V40Z" fill="#8BD9FF"/>
<path d="M145 40H150V45H145V40Z" fill="#8BD9FF"/>
<path d="M150 40H155V45H150V40Z" fill="#8BD9FF"/>
<path d="M170 40H175V45H170V40Z" fill="#8BD9FF"/>
<path d="M175 40H180V45H175V40Z" fill="#8BD9FF"/>
<path d="M165 40H170V45H165V40Z" fill="#8BD9FF"/>
<path d="M160 40H165V45H160V40Z" fill="#8BD9FF"/>
<path d="M155 40H160V45H155V40Z" fill="#8BD9FF"/>
<path d="M195 40H200V45H195V40Z" fill="#8BD9FF"/>
<path d="M200 40H205V45H200V40Z" fill="#8BD9FF"/>
<path d="M205 40H210V45H205V40Z" fill="#8BD9FF"/>
<path d="M210 40H215V45H210V40Z" fill="#8BD9FF"/>
<path d="M190 40H195V45H190V40Z" fill="#8BD9FF"/>
<path d="M185 40H190V45H185V40Z" fill="#8BD9FF"/>
<path d="M180 40H185V45H180V40Z" fill="#8BD9FF"/>
<path d="M215 40H220V45H215V40Z" fill="#8BD9FF"/>
<path d="M235 40H240V45H235V40Z" fill="#8BD9FF"/>
<path d="M240 40H245V45H240V40Z" fill="#8BD9FF"/>
<path d="M245 40H250V45H245V40Z" fill="#8BD9FF"/>
<path d="M230 40H235V45H230V40Z" fill="#8BD9FF"/>
<path d="M225 40H230V45H225V40Z" fill="#8BD9FF"/>
<path d="M220 40H225V45H220V40Z" fill="#8BD9FF"/>
<path d="M0 40H5V45H0V40Z" fill="#8BD9FF"/>
<path d="M55 30H60V35H55V30Z" fill="#8BD9FF"/>
<path d="M20 25H25V30H20V25Z" fill="#8BD9FF"/>
<path d="M50 25H55V30H50V25Z" fill="#8BD9FF"/>
<path d="M20 30H25V35H20V30Z" fill="#8BD9FF"/>
<path d="M60 30H65V35H60V30Z" fill="#8BD9FF"/>
<path d="M25 25H30V30H25V25Z" fill="#8BD9FF"/>
<path d="M55 25H60V30H55V25Z" fill="#8BD9FF"/>
<path d="M25 30H30V35H25V30Z" fill="#8BD9FF"/>
<path d="M50 30H55V35H50V30Z" fill="#8BD9FF"/>
<path d="M15 25H20V30H15V25Z" fill="#8BD9FF"/>
<path d="M45 25H50V30H45V25Z" fill="#8BD9FF"/>
<path d="M15 30H20V35H15V30Z" fill="#8BD9FF"/>
<path d="M45 30H50V35H45V30Z" fill="#8BD9FF"/>
<path d="M10 25H15V30H10V25Z" fill="#B6E6FE"/>
<path d="M40 25H45V30H40V25Z" fill="#8BD9FF"/>
<path d="M10 30H15V35H10V30Z" fill="#8BD9FF"/>
<path d="M5 25H10V30H5V25Z" fill="#B6E6FE"/>
<path d="M40 30H45V35H40V30Z" fill="#8BD9FF"/>
<path d="M35 25H40V30H35V25Z" fill="#B6E6FE"/>
<path d="M5 30H10V35H5V30Z" fill="#8BD9FF"/>
<path d="M0 25H5V30H0V25Z" fill="#8BD9FF"/>
<path d="M35 30H40V35H35V30Z" fill="#8BD9FF"/>
<path d="M30 25H35V30H30V25Z" fill="#B6E6FE"/>
<path d="M30 30H35V35H30V30Z" fill="#8BD9FF"/>
<path d="M60 25H65V30H60V25Z" fill="#8BD9FF"/>
<path d="M65 25H70V30H65V25Z" fill="#8BD9FF"/>
<path d="M65 30H70V35H65V30Z" fill="#8BD9FF"/>
<path d="M70 25H75V30H70V25Z" fill="#8BD9FF"/>
<path d="M70 30H75V35H70V30Z" fill="#8BD9FF"/>
<path d="M100 25H105V30H100V25Z" fill="#8BD9FF"/>
<path d="M90 25H95V30H90V25Z" fill="#8BD9FF"/>
<path d="M105 25H110V30H105V25Z" fill="#8BD9FF"/>
<path d="M95 25H100V30H95V25Z" fill="#8BD9FF"/>
<path d="M85 25H90V30H85V25Z" fill="#8BD9FF"/>
<path d="M80 25H85V30H80V25Z" fill="#8BD9FF"/>
<path d="M75 25H80V30H75V25Z" fill="#8BD9FF"/>
<path d="M140 25H145V30H140V25Z" fill="#8BD9FF"/>
<path d="M135 25H140V30H135V25Z" fill="#8BD9FF"/>
<path d="M130 25H135V30H130V25Z" fill="#8BD9FF"/>
<path d="M125 25H130V30H125V25Z" fill="#8BD9FF"/>
<path d="M120 25H125V30H120V25Z" fill="#8BD9FF"/>
<path d="M115 25H120V30H115V25Z" fill="#8BD9FF"/>
<path d="M110 25H115V30H110V25Z" fill="#8BD9FF"/>
<path d="M145 25H150V30H145V25Z" fill="#8BD9FF"/>
<path d="M150 25H155V30H150V25Z" fill="#8BD9FF"/>
<path d="M170 25H175V30H170V25Z" fill="#8BD9FF"/>
<path d="M175 25H180V30H175V25Z" fill="#8BD9FF"/>
<path d="M165 25H170V30H165V25Z" fill="#8BD9FF"/>
<path d="M160 25H165V30H160V25Z" fill="#8BD9FF"/>
<path d="M155 25H160V30H155V25Z" fill="#8BD9FF"/>
<path d="M195 25H200V30H195V25Z" fill="#8BD9FF"/>
<path d="M200 25H205V30H200V25Z" fill="#8BD9FF"/>
<path d="M205 25H210V30H205V25Z" fill="#8BD9FF"/>
<path d="M210 25H215V30H210V25Z" fill="#8BD9FF"/>
<path d="M190 25H195V30H190V25Z" fill="#8BD9FF"/>
<path d="M185 25H190V30H185V25Z" fill="#8BD9FF"/>
<path d="M180 25H185V30H180V25Z" fill="#8BD9FF"/>
<path d="M215 25H220V30H215V25Z" fill="#8BD9FF"/>
<path d="M235 25H240V30H235V25Z" fill="#8BD9FF"/>
<path d="M240 25H245V30H240V25Z" fill="#8BD9FF"/>
<path d="M245 25H250V30H245V25Z" fill="#8BD9FF"/>
<path d="M230 25H235V30H230V25Z" fill="#8BD9FF"/>
<path d="M225 25H230V30H225V25Z" fill="#8BD9FF"/>
<path d="M220 25H225V30H220V25Z" fill="#8BD9FF"/>
<path d="M100 30H105V35H100V30Z" fill="#8BD9FF"/>
<path d="M90 30H95V35H90V30Z" fill="#8BD9FF"/>
<path d="M105 30H110V35H105V30Z" fill="#8BD9FF"/>
<path d="M95 30H100V35H95V30Z" fill="#8BD9FF"/>
<path d="M85 30H90V35H85V30Z" fill="#8BD9FF"/>
<path d="M80 30H85V35H80V30Z" fill="#8BD9FF"/>
<path d="M75 30H80V35H75V30Z" fill="#8BD9FF"/>
<path d="M140 30H145V35H140V30Z" fill="#8BD9FF"/>
<path d="M135 30H140V35H135V30Z" fill="#8BD9FF"/>
<path d="M130 30H135V35H130V30Z" fill="#8BD9FF"/>
<path d="M125 30H130V35H125V30Z" fill="#8BD9FF"/>
<path d="M120 30H125V35H120V30Z" fill="#8BD9FF"/>
<path d="M115 30H120V35H115V30Z" fill="#8BD9FF"/>
<path d="M110 30H115V35H110V30Z" fill="#8BD9FF"/>
<path d="M145 30H150V35H145V30Z" fill="#8BD9FF"/>
<path d="M150 30H155V35H150V30Z" fill="#8BD9FF"/>
<path d="M170 30H175V35H170V30Z" fill="#8BD9FF"/>
<path d="M175 30H180V35H175V30Z" fill="#8BD9FF"/>
<path d="M165 30H170V35H165V30Z" fill="#8BD9FF"/>
<path d="M160 30H165V35H160V30Z" fill="#8BD9FF"/>
<path d="M155 30H160V35H155V30Z" fill="#8BD9FF"/>
<path d="M195 30H200V35H195V30Z" fill="#8BD9FF"/>
<path d="M200 30H205V35H200V30Z" fill="#8BD9FF"/>
<path d="M205 30H210V35H205V30Z" fill="#8BD9FF"/>
<path d="M210 30H215V35H210V30Z" fill="#8BD9FF"/>
<path d="M190 30H195V35H190V30Z" fill="#8BD9FF"/>
<path d="M185 30H190V35H185V30Z" fill="#8BD9FF"/>
<path d="M180 30H185V35H180V30Z" fill="#8BD9FF"/>
<path d="M215 30H220V35H215V30Z" fill="#8BD9FF"/>
<path d="M235 30H240V35H235V30Z" fill="#8BD9FF"/>
<path d="M240 30H245V35H240V30Z" fill="#8BD9FF"/>
<path d="M245 30H250V35H245V30Z" fill="#8BD9FF"/>
<path d="M230 30H235V35H230V30Z" fill="#8BD9FF"/>
<path d="M225 30H230V35H225V30Z" fill="#8BD9FF"/>
<path d="M220 30H225V35H220V30Z" fill="#8BD9FF"/>
<path d="M0 30H5V35H0V30Z" fill="#8BD9FF"/>
<path d="M20 20H25V25H20V20Z" fill="#B6E6FE"/>
<path d="M50 20H55V25H50V20Z" fill="#8BD9FF"/>
<path d="M25 20H30V25H25V20Z" fill="#B6E6FE"/>
<path d="M55 20H60V25H55V20Z" fill="#8BD9FF"/>
<path d="M15 20H20V25H15V20Z" fill="#B6E6FE"/>
<path d="M45 20H50V25H45V20Z" fill="#8BD9FF"/>
<path d="M10 20H15V25H10V20Z" fill="#8BD9FF"/>
<path d="M40 20H45V25H40V20Z" fill="#8BD9FF"/>
<path d="M5 20H10V25H5V20Z" fill="#8BD9FF"/>
<path d="M35 20H40V25H35V20Z" fill="#8BD9FF"/>
<path d="M0 20H5V25H0V20Z" fill="#8BD9FF"/>
<path d="M30 20H35V25H30V20Z" fill="#8BD9FF"/>
<path d="M60 20H65V25H60V20Z" fill="#8BD9FF"/>
<path d="M65 20H70V25H65V20Z" fill="#8BD9FF"/>
<path d="M70 20H75V25H70V20Z" fill="#8BD9FF"/>
<path d="M100 20H105V25H100V20Z" fill="#8BD9FF"/>
<path d="M90 20H95V25H90V20Z" fill="#8BD9FF"/>
<path d="M105 20H110V25H105V20Z" fill="#B6E6FE"/>
<path d="M95 20H100V25H95V20Z" fill="#8BD9FF"/>
<path d="M85 20H90V25H85V20Z" fill="#8BD9FF"/>
<path d="M80 20H85V25H80V20Z" fill="#B6E6FE"/>
<path d="M75 20H80V25H75V20Z" fill="#8BD9FF"/>
<path d="M140 20H145V25H140V20Z" fill="#8BD9FF"/>
<path d="M135 20H140V25H135V20Z" fill="#8BD9FF"/>
<path d="M130 20H135V25H130V20Z" fill="#8BD9FF"/>
<path d="M125 20H130V25H125V20Z" fill="#8BD9FF"/>
<path d="M120 20H125V25H120V20Z" fill="#8BD9FF"/>
<path d="M115 20H120V25H115V20Z" fill="#8BD9FF"/>
<path d="M110 20H115V25H110V20Z" fill="#B6E6FE"/>
<path d="M145 20H150V25H145V20Z" fill="#8BD9FF"/>
<path d="M150 20H155V25H150V20Z" fill="#8BD9FF"/>
<path d="M170 20H175V25H170V20Z" fill="#8BD9FF"/>
<path d="M175 20H180V25H175V20Z" fill="#8BD9FF"/>
<path d="M165 20H170V25H165V20Z" fill="#8BD9FF"/>
<path d="M160 20H165V25H160V20Z" fill="#8BD9FF"/>
<path d="M155 20H160V25H155V20Z" fill="#8BD9FF"/>
<path d="M195 20H200V25H195V20Z" fill="#8BD9FF"/>
<path d="M200 20H205V25H200V20Z" fill="#8BD9FF"/>
<path d="M205 20H210V25H205V20Z" fill="#8BD9FF"/>
<path d="M210 20H215V25H210V20Z" fill="#8BD9FF"/>
<path d="M190 20H195V25H190V20Z" fill="#8BD9FF"/>
<path d="M185 20H190V25H185V20Z" fill="#8BD9FF"/>
<path d="M180 20H185V25H180V20Z" fill="#8BD9FF"/>
<path d="M215 20H220V25H215V20Z" fill="#8BD9FF"/>
<path d="M235 20H240V25H235V20Z" fill="#8BD9FF"/>
<path d="M240 20H245V25H240V20Z" fill="#8BD9FF"/>
<path d="M245 20H250V25H245V20Z" fill="#8BD9FF"/>
<path d="M230 20H235V25H230V20Z" fill="#8BD9FF"/>
<path d="M225 20H230V25H225V20Z" fill="#8BD9FF"/>
<path d="M220 20H225V25H220V20Z" fill="#8BD9FF"/>
<path d="M55 15H60V20H55V15Z" fill="#8BD9FF"/>
<path d="M20 10H25V15H20V10Z" fill="#8BD9FF"/>
<path d="M50 10H55V15H50V10Z" fill="#8BD9FF"/>
<path d="M20 15H25V20H20V15Z" fill="#8BD9FF"/>
<path d="M60 15H65V20H60V15Z" fill="#8BD9FF"/>
<path d="M25 10H30V15H25V10Z" fill="#8BD9FF"/>
<path d="M55 10H60V15H55V10Z" fill="#8BD9FF"/>
<path d="M25 15H30V20H25V15Z" fill="#8BD9FF"/>
<path d="M50 15H55V20H50V15Z" fill="#8BD9FF"/>
<path d="M15 10H20V15H15V10Z" fill="#8BD9FF"/>
<path d="M45 10H50V15H45V10Z" fill="#8BD9FF"/>
<path d="M15 15H20V20H15V15Z" fill="#8BD9FF"/>
<path d="M45 15H50V20H45V15Z" fill="#8BD9FF"/>
<path d="M10 10H15V15H10V10Z" fill="#8BD9FF"/>
<path d="M40 10H45V15H40V10Z" fill="#8BD9FF"/>
<path d="M10 15H15V20H10V15Z" fill="#8BD9FF"/>
<path d="M5 10H10V15H5V10Z" fill="#8BD9FF"/>
<path d="M40 15H45V20H40V15Z" fill="#8BD9FF"/>
<path d="M35 10H40V15H35V10Z" fill="#8BD9FF"/>
<path d="M5 15H10V20H5V15Z" fill="#8BD9FF"/>
<path d="M0 10H5V15H0V10Z" fill="#8BD9FF"/>
<path d="M35 15H40V20H35V15Z" fill="#8BD9FF"/>
<path d="M30 10H35V15H30V10Z" fill="#8BD9FF"/>
<path d="M30 15H35V20H30V15Z" fill="#8BD9FF"/>
<path d="M60 10H65V15H60V10Z" fill="#8BD9FF"/>
<path d="M65 10H70V15H65V10Z" fill="#8BD9FF"/>
<path d="M65 15H70V20H65V15Z" fill="#8BD9FF"/>
<path d="M70 10H75V15H70V10Z" fill="#8BD9FF"/>
<path d="M70 15H75V20H70V15Z" fill="#8BD9FF"/>
<path d="M100 10H105V15H100V10Z" fill="#8BD9FF"/>
<path d="M90 10H95V15H90V10Z" fill="#8BD9FF"/>
<path d="M105 10H110V15H105V10Z" fill="#8BD9FF"/>
<path d="M95 10H100V15H95V10Z" fill="#8BD9FF"/>
<path d="M85 10H90V15H85V10Z" fill="#8BD9FF"/>
<path d="M80 10H85V15H80V10Z" fill="#8BD9FF"/>
<path d="M75 10H80V15H75V10Z" fill="#8BD9FF"/>
<path d="M140 10H145V15H140V10Z" fill="#8BD9FF"/>
<path d="M135 10H140V15H135V10Z" fill="#8BD9FF"/>
<path d="M130 10H135V15H130V10Z" fill="#8BD9FF"/>
<path d="M125 10H130V15H125V10Z" fill="#8BD9FF"/>
<path d="M120 10H125V15H120V10Z" fill="#8BD9FF"/>
<path d="M115 10H120V15H115V10Z" fill="#8BD9FF"/>
<path d="M110 10H115V15H110V10Z" fill="#8BD9FF"/>
<path d="M145 10H150V15H145V10Z" fill="#8BD9FF"/>
<path d="M150 10H155V15H150V10Z" fill="#8BD9FF"/>
<path d="M170 10H175V15H170V10Z" fill="#8BD9FF"/>
<path d="M175 10H180V15H175V10Z" fill="#8BD9FF"/>
<path d="M165 10H170V15H165V10Z" fill="#8BD9FF"/>
<path d="M160 10H165V15H160V10Z" fill="#8BD9FF"/>
<path d="M155 10H160V15H155V10Z" fill="#8BD9FF"/>
<path d="M195 10H200V15H195V10Z" fill="#B6E6FE"/>
<path d="M200 10H205V15H200V10Z" fill="#B6E6FE"/>
<path d="M205 10H210V15H205V10Z" fill="#B6E6FE"/>
<path d="M210 10H215V15H210V10Z" fill="#B6E6FE"/>
<path d="M190 10H195V15H190V10Z" fill="#8BD9FF"/>
<path d="M185 10H190V15H185V10Z" fill="#8BD9FF"/>
<path d="M180 10H185V15H180V10Z" fill="#8BD9FF"/>
<path d="M215 10H220V15H215V10Z" fill="#8BD9FF"/>
<path d="M235 10H240V15H235V10Z" fill="#8BD9FF"/>
<path d="M240 10H245V15H240V10Z" fill="#8BD9FF"/>
<path d="M245 10H250V15H245V10Z" fill="#8BD9FF"/>
<path d="M230 10H235V15H230V10Z" fill="#8BD9FF"/>
<path d="M225 10H230V15H225V10Z" fill="#8BD9FF"/>
<path d="M220 10H225V15H220V10Z" fill="#8BD9FF"/>
<path d="M100 15H105V20H100V15Z" fill="#B6E6FE"/>
<path d="M90 15H95V20H90V15Z" fill="#B6E6FE"/>
<path d="M105 15H110V20H105V15Z" fill="#8BD9FF"/>
<path d="M95 15H100V20H95V15Z" fill="#B6E6FE"/>
<path d="M85 15H90V20H85V15Z" fill="#B6E6FE"/>
<path d="M80 15H85V20H80V15Z" fill="#8BD9FF"/>
<path d="M75 15H80V20H75V15Z" fill="#8BD9FF"/>
<path d="M140 15H145V20H140V15Z" fill="#8BD9FF"/>
<path d="M135 15H140V20H135V15Z" fill="#8BD9FF"/>
<path d="M130 15H135V20H130V15Z" fill="#8BD9FF"/>
<path d="M125 15H130V20H125V15Z" fill="#8BD9FF"/>
<path d="M120 15H125V20H120V15Z" fill="#8BD9FF"/>
<path d="M115 15H120V20H115V15Z" fill="#8BD9FF"/>
<path d="M110 15H115V20H110V15Z" fill="#8BD9FF"/>
<path d="M145 15H150V20H145V15Z" fill="#8BD9FF"/>
<path d="M150 15H155V20H150V15Z" fill="#8BD9FF"/>
<path d="M170 15H175V20H170V15Z" fill="#8BD9FF"/>
<path d="M175 15H180V20H175V15Z" fill="#8BD9FF"/>
<path d="M165 15H170V20H165V15Z" fill="#8BD9FF"/>
<path d="M160 15H165V20H160V15Z" fill="#8BD9FF"/>
<path d="M155 15H160V20H155V15Z" fill="#8BD9FF"/>
<path d="M195 15H200V20H195V15Z" fill="#8BD9FF"/>
<path d="M200 15H205V20H200V15Z" fill="#8BD9FF"/>
<path d="M205 15H210V20H205V15Z" fill="#8BD9FF"/>
<path d="M210 15H215V20H210V15Z" fill="#8BD9FF"/>
<path d="M190 15H195V20H190V15Z" fill="#B6E6FE"/>
<path d="M185 15H190V20H185V15Z" fill="#B6E6FE"/>
<path d="M180 15H185V20H180V15Z" fill="#B6E6FE"/>
<path d="M215 15H220V20H215V15Z" fill="#B6E6FE"/>
<path d="M235 15H240V20H235V15Z" fill="#8BD9FF"/>
<path d="M240 15H245V20H240V15Z" fill="#8BD9FF"/>
<path d="M245 15H250V20H245V15Z" fill="#8BD9FF"/>
<path d="M230 15H235V20H230V15Z" fill="#8BD9FF"/>
<path d="M225 15H230V20H225V15Z" fill="#8BD9FF"/>
<path d="M220 15H225V20H220V15Z" fill="#B6E6FE"/>
<path d="M0 15H5V20H0V15Z" fill="#8BD9FF"/>
<path d="M55 5H60V10H55V5Z" fill="#8BD9FF"/>
<path d="M20 0H25V5H20V0Z" fill="#8BD9FF"/>
<path d="M50 0H55V5H50V0Z" fill="#8BD9FF"/>
<path d="M20 5H25V10H20V5Z" fill="#8BD9FF"/>
<path d="M60 5H65V10H60V5Z" fill="#8BD9FF"/>
<path d="M25 0H30V5H25V0Z" fill="#8BD9FF"/>
<path d="M55 0H60V5H55V0Z" fill="#8BD9FF"/>
<path d="M25 5H30V10H25V5Z" fill="#8BD9FF"/>
<path d="M50 5H55V10H50V5Z" fill="#8BD9FF"/>
<path d="M15 0H20V5H15V0Z" fill="#8BD9FF"/>
<path d="M45 0H50V5H45V0Z" fill="#8BD9FF"/>
<path d="M15 5H20V10H15V5Z" fill="#8BD9FF"/>
<path d="M45 5H50V10H45V5Z" fill="#8BD9FF"/>
<path d="M10 0H15V5H10V0Z" fill="#8BD9FF"/>
<path d="M40 0H45V5H40V0Z" fill="#8BD9FF"/>
<path d="M10 5H15V10H10V5Z" fill="#8BD9FF"/>
<path d="M5 0H10V5H5V0Z" fill="#8BD9FF"/>
<path d="M40 5H45V10H40V5Z" fill="#8BD9FF"/>
<path d="M35 0H40V5H35V0Z" fill="#8BD9FF"/>
<path d="M5 5H10V10H5V5Z" fill="#8BD9FF"/>
<path d="M0 0H5V5H0V0Z" fill="#8BD9FF"/>
<path d="M35 5H40V10H35V5Z" fill="#8BD9FF"/>
<path d="M30 0H35V5H30V0Z" fill="#8BD9FF"/>
<path d="M30 5H35V10H30V5Z" fill="#8BD9FF"/>
<path d="M60 0H65V5H60V0Z" fill="#8BD9FF"/>
<path d="M65 0H70V5H65V0Z" fill="#8BD9FF"/>
<path d="M65 5H70V10H65V5Z" fill="#8BD9FF"/>
<path d="M70 0H75V5H70V0Z" fill="#8BD9FF"/>
<path d="M70 5H75V10H70V5Z" fill="#8BD9FF"/>
<path d="M100 0H105V5H100V0Z" fill="#8BD9FF"/>
<path d="M90 0H95V5H90V0Z" fill="#8BD9FF"/>
<path d="M105 0H110V5H105V0Z" fill="#8BD9FF"/>
<path d="M95 0H100V5H95V0Z" fill="#8BD9FF"/>
<path d="M85 0H90V5H85V0Z" fill="#8BD9FF"/>
<path d="M80 0H85V5H80V0Z" fill="#8BD9FF"/>
<path d="M75 0H80V5H75V0Z" fill="#8BD9FF"/>
<path d="M140 0H145V5H140V0Z" fill="#8BD9FF"/>
<path d="M135 0H140V5H135V0Z" fill="#8BD9FF"/>
<path d="M130 0H135V5H130V0Z" fill="#8BD9FF"/>
<path d="M125 0H130V5H125V0Z" fill="#8BD9FF"/>
<path d="M120 0H125V5H120V0Z" fill="#8BD9FF"/>
<path d="M115 0H120V5H115V0Z" fill="#8BD9FF"/>
<path d="M110 0H115V5H110V0Z" fill="#8BD9FF"/>
<path d="M145 0H150V5H145V0Z" fill="#8BD9FF"/>
<path d="M150 0H155V5H150V0Z" fill="#8BD9FF"/>
<path d="M170 0H175V5H170V0Z" fill="#8BD9FF"/>
<path d="M175 0H180V5H175V0Z" fill="#8BD9FF"/>
<path d="M165 0H170V5H165V0Z" fill="#8BD9FF"/>
<path d="M160 0H165V5H160V0Z" fill="#8BD9FF"/>
<path d="M155 0H160V5H155V0Z" fill="#8BD9FF"/>
<path d="M195 0H200V5H195V0Z" fill="#8BD9FF"/>
<path d="M200 0H205V5H200V0Z" fill="#8BD9FF"/>
<path d="M205 0H210V5H205V0Z" fill="#8BD9FF"/>
<path d="M210 0H215V5H210V0Z" fill="#8BD9FF"/>
<path d="M190 0H195V5H190V0Z" fill="#8BD9FF"/>
<path d="M185 0H190V5H185V0Z" fill="#8BD9FF"/>
<path d="M180 0H185V5H180V0Z" fill="#8BD9FF"/>
<path d="M215 0H220V5H215V0Z" fill="#8BD9FF"/>
<path d="M235 0H240V5H235V0Z" fill="#8BD9FF"/>
<path d="M240 0H245V5H240V0Z" fill="#8BD9FF"/>
<path d="M245 0H250V5H245V0Z" fill="#8BD9FF"/>
<path d="M230 0H235V5H230V0Z" fill="#8BD9FF"/>
<path d="M225 0H230V5H225V0Z" fill="#8BD9FF"/>
<path d="M220 0H225V5H220V0Z" fill="#8BD9FF"/>
<path d="M100 5H105V10H100V5Z" fill="#8BD9FF"/>
<path d="M90 5H95V10H90V5Z" fill="#8BD9FF"/>
<path d="M105 5H110V10H105V5Z" fill="#8BD9FF"/>
<path d="M95 5H100V10H95V5Z" fill="#8BD9FF"/>
<path d="M85 5H90V10H85V5Z" fill="#8BD9FF"/>
<path d="M80 5H85V10H80V5Z" fill="#8BD9FF"/>
<path d="M75 5H80V10H75V5Z" fill="#8BD9FF"/>
<path d="M140 5H145V10H140V5Z" fill="#8BD9FF"/>
<path d="M135 5H140V10H135V5Z" fill="#8BD9FF"/>
<path d="M130 5H135V10H130V5Z" fill="#8BD9FF"/>
<path d="M125 5H130V10H125V5Z" fill="#8BD9FF"/>
<path d="M120 5H125V10H120V5Z" fill="#8BD9FF"/>
<path d="M115 5H120V10H115V5Z" fill="#8BD9FF"/>
<path d="M110 5H115V10H110V5Z" fill="#8BD9FF"/>
<path d="M145 5H150V10H145V5Z" fill="#8BD9FF"/>
<path d="M150 5H155V10H150V5Z" fill="#8BD9FF"/>
<path d="M170 5H175V10H170V5Z" fill="#8BD9FF"/>
<path d="M175 5H180V10H175V5Z" fill="#8BD9FF"/>
<path d="M165 5H170V10H165V5Z" fill="#8BD9FF"/>
<path d="M160 5H165V10H160V5Z" fill="#8BD9FF"/>
<path d="M155 5H160V10H155V5Z" fill="#8BD9FF"/>
<path d="M195 5H200V10H195V5Z" fill="#8BD9FF"/>
<path d="M200 5H205V10H200V5Z" fill="#8BD9FF"/>
<path d="M205 5H210V10H205V5Z" fill="#8BD9FF"/>
<path d="M210 5H215V10H210V5Z" fill="#8BD9FF"/>
<path d="M190 5H195V10H190V5Z" fill="#8BD9FF"/>
<path d="M185 5H190V10H185V5Z" fill="#8BD9FF"/>
<path d="M180 5H185V10H180V5Z" fill="#8BD9FF"/>
<path d="M215 5H220V10H215V5Z" fill="#8BD9FF"/>
<path d="M235 5H240V10H235V5Z" fill="#8BD9FF"/>
<path d="M240 5H245V10H240V5Z" fill="#8BD9FF"/>
<path d="M245 5H250V10H245V5Z" fill="#8BD9FF"/>
<path d="M230 5H235V10H230V5Z" fill="#8BD9FF"/>
<path d="M225 5H230V10H225V5Z" fill="#8BD9FF"/>
<path d="M220 5H225V10H220V5Z" fill="#8BD9FF"/>
<path d="M0 5H5V10H0V5Z" fill="#8BD9FF"/>
<path d="M0 65H5V70H0V65Z" fill="#8BD9FF"/>
</svg>
