<svg width="750" height="440" viewBox="0 0 750 440" fill="none" xmlns="http://www.w3.org/2000/svg">
<path fill-rule="evenodd" clip-rule="evenodd" d="M185 220H195V225H205V260L205 230H210V240H225L225 245H230V255H225L225 260H220V265H160V260H155V240H170L170 230H175L175 225H185V220ZM155 245H150V255H155V245Z" fill="white"/>
<rect width="60" height="5" transform="matrix(-1 0 0 1 220 260)" fill="#E3E3E3"/>
<path fill-rule="evenodd" clip-rule="evenodd" d="M385 90H395V95H405V130L405 100H410V110H425L425 115H430V125H425L425 130H420V135H360V130H355V110H370L370 100H375L375 95H385V90ZM355 115H350V125H355V115Z" fill="white"/>
<rect width="60" height="5" transform="matrix(-1 0 0 1 420 130)" fill="#E3E3E3"/>
<path fill-rule="evenodd" clip-rule="evenodd" d="M555 250H565V255H575V290L575 260H580V270H595L595 275H600V285H595L595 290H590V295H530V290H525V270H540L540 260H545L545 255H555V250ZM525 275H520V285H525V275Z" fill="white"/>
<rect width="60" height="5" transform="matrix(-1 0 0 1 590 290)" fill="#E3E3E3"/>
</svg>
