<svg width="24" height="24" viewBox="0 0 24 24" fill="none" xmlns="http://www.w3.org/2000/svg">
<path d="M23.9983 11.9987C23.9983 5.372 18.6263 0 11.9996 0C5.37297 0 0.000976562 5.372 0.000976562 11.9987C0.000976562 17.988 4.38897 22.952 10.125 23.852V15.4667H7.07831V11.9987H10.125V9.35467C10.125 6.348 11.917 4.68667 14.657 4.68667C15.9703 4.68667 17.3436 4.92133 17.3436 4.92133V7.87467H15.8303C14.3396 7.87467 13.8743 8.8 13.8743 9.748V11.9987H17.2023L16.6703 15.4667H13.8743V23.852C19.6103 22.952 23.9983 17.988 23.9983 11.9987V11.9987Z" fill="#666666"/>
</svg>
