<svg width="40" height="40" viewBox="0 0 40 40" fill="none" xmlns="http://www.w3.org/2000/svg">
<rect x="15" y="25" width="5" height="5" fill="white" fill-opacity="0.2"/>
<rect x="20" y="30" width="5" height="5" fill="white" fill-opacity="0.2"/>
<rect x="15" y="30" width="5" height="5" fill="white" fill-opacity="0.2"/>
<rect x="20" y="35" width="5" height="5" fill="white" fill-opacity="0.2"/>
<rect x="10" y="25" width="5" height="5" fill="white" fill-opacity="0.2"/>
<rect x="25" y="30" width="5" height="5" fill="white" fill-opacity="0.2"/>
<rect x="30" y="35" width="5" height="5" fill="white" fill-opacity="0.2"/>
<rect x="20" y="25" width="5" height="5" fill="white" fill-opacity="0.2"/>
<rect x="25" y="35" width="5" height="5" fill="white" fill-opacity="0.2"/>
<rect x="25" y="25" width="5" height="5" fill="white" fill-opacity="0.2"/>
<rect x="30" y="30" width="5" height="5" fill="white" fill-opacity="0.2"/>
<rect x="35" y="35" width="5" height="5" fill="white" fill-opacity="0.2"/>
<rect x="15" y="20" width="5" height="5" fill="white" fill-opacity="0.2"/>
<rect x="10" y="20" width="5" height="5" fill="white" fill-opacity="0.2"/>
<rect x="20" y="20" width="5" height="5" fill="white" fill-opacity="0.2"/>
<rect x="5" y="20" width="5" height="5" fill="white" fill-opacity="0.2"/>
<rect x="15" y="15" width="5" height="5" fill="white" fill-opacity="0.2"/>
<rect x="10" y="15" width="5" height="5" fill="white" fill-opacity="0.2"/>
<rect y="15" width="5" height="5" fill="white" fill-opacity="0.2"/>
<rect x="5" y="15" width="5" height="5" fill="white" fill-opacity="0.2"/>
<rect x="10" y="10" width="5" height="5" fill="white" fill-opacity="0.2"/>
<rect y="10" width="5" height="5" fill="white" fill-opacity="0.2"/>
<rect x="5" y="10" width="5" height="5" fill="white" fill-opacity="0.2"/>
<rect x="35" y="10" width="5" height="5" fill="white" fill-opacity="0.2"/>
<rect y="5" width="5" height="5" fill="white" fill-opacity="0.2"/>
<rect x="5" y="5" width="5" height="5" fill="white" fill-opacity="0.2"/>
<rect x="35" y="5" width="5" height="5" fill="white" fill-opacity="0.2"/>
<rect x="30" y="5" width="5" height="5" fill="white" fill-opacity="0.2"/>
<rect width="5" height="5" fill="white" fill-opacity="0.2"/>
<rect x="25" width="5" height="5" fill="white" fill-opacity="0.2"/>
<rect x="35" width="5" height="5" fill="white" fill-opacity="0.2"/>
<rect x="30" width="5" height="5" fill="white" fill-opacity="0.2"/>
</svg>
