<svg width="30" height="30" viewBox="0 0 30 30" fill="none" xmlns="http://www.w3.org/2000/svg">
<rect width="30" height="30" fill="white"/>
<rect y="20" width="5" height="5" fill="#111111"/>
<rect y="25" width="5" height="5" fill="#111111"/>
<rect y="15" width="5" height="5" fill="#111111"/>
<rect y="10" width="5" height="5" fill="#111111"/>
<rect width="5" height="5" fill="#111111"/>
<rect y="5" width="5" height="5" fill="#111111"/>
<rect x="5" y="20" width="5" height="5" fill="#111111"/>
<rect x="10" y="15" width="5" height="5" fill="#111111"/>
<rect x="15" y="5" width="5" height="5" fill="#111111"/>
<rect x="20" y="10" width="5" height="5" fill="#111111"/>
<rect x="25" y="10" width="5" height="5" fill="#111111"/>
<rect x="15" y="10" width="5" height="5" fill="#EE1B24"/>
<rect x="10" y="10" width="5" height="5" fill="#EE1B24"/>
<rect x="5" y="15" width="5" height="5" fill="#BD313A"/>
<rect x="5" y="10" width="5" height="5" fill="#EE1B24"/>
<rect x="5" y="5" width="5" height="5" fill="#EE1B24"/>
<rect x="15" y="15" width="5" height="5" fill="#111111"/>
<rect x="5" width="5" height="5" fill="#111111"/>
<rect x="10" y="5" width="5" height="5" fill="#111111"/>
</svg>
