<svg width="250" height="250" viewBox="0 0 250 250" fill="none" xmlns="http://www.w3.org/2000/svg">
<rect x="205" y="230" width="5" height="5.00001" fill="#6B79C8"/>
<rect x="205" y="235" width="5" height="5.00001" fill="#4A3C6F"/>
<rect x="200" y="230" width="5" height="5.00001" fill="#4A3C6F"/>
<rect x="205" y="225" width="5" height="5.00001" fill="#4A3C6F"/>
<rect x="210" y="230" width="5" height="5.00001" fill="#4A3C6F"/>
<rect x="100" y="10" width="5" height="5.00001" fill="#2F1C4D"/>
<rect x="110" y="40" width="5" height="5.00001" fill="#2F1C4D"/>
<rect x="185" y="15" width="5" height="5.00001" fill="#2F1C4D"/>
<rect x="225" y="25" width="5" height="5.00001" fill="#2F1C4D"/>
<rect x="200" y="55" width="5" height="5.00001" fill="#2F1C4D"/>
<rect x="160" y="75" width="5" height="5.00001" fill="#4A3C6F"/>
<rect x="210" y="125" width="5" height="5.00001" fill="#4A3C6F"/>
<rect x="80" y="90" width="5" height="5.00001" fill="#4A3C6F"/>
<rect x="80" y="210" width="5" height="5.00001" fill="#4A3C6F"/>
<rect x="100" y="145" width="5" height="5.00001" fill="#2F1C4D"/>
<rect x="130" y="175" width="5" height="5.00001" fill="#2F1C4D"/>
<rect x="230" y="180" width="5" height="5.00001" fill="#2F1C4D"/>
<rect x="245" y="195" width="5" height="5.00001" fill="#2F1C4D"/>
<rect x="35" y="170" width="5" height="5.00001" fill="#2F1C4D"/>
<rect x="60" y="45" width="5" height="5.00001" fill="#2F1C4D"/>
<rect x="10" y="55" width="5" height="5.00001" fill="#2F1C4D"/>
<rect y="85" width="5" height="5.00001" fill="#4A3C6F"/>
</svg>
