<svg width="24" height="24" viewBox="0 0 24 24" fill="none" xmlns="http://www.w3.org/2000/svg">
<path d="M12 0C12.8493 0 13.5472 0.647991 13.6264 1.47654L13.6339 1.6339L13.6337 10.3651L22.3661 10.3661C23.2685 10.3661 24 11.0976 24 12C24 12.8493 23.352 13.5472 22.5235 13.6264L22.3661 13.6339L13.6337 13.6337L13.6339 22.3661C13.6339 23.2685 12.9024 24 12 24C11.1507 24 10.4528 23.352 10.3736 22.5235L10.3661 22.3661L10.3651 13.6337L1.6339 13.6339C0.731521 13.6339 0 12.9024 0 12C0 11.1507 0.647991 10.4528 1.47654 10.3736L1.6339 10.3661L10.3651 10.3651L10.3661 1.6339C10.3661 0.731521 11.0976 0 12 0Z" fill="#777777"/>
</svg>
