<svg width="24" height="24" viewBox="0 0 24 24" fill="none" xmlns="http://www.w3.org/2000/svg">
<path d="M19.1233 15.5476C18.3031 15.5641 17.641 14.9543 17.5759 14.1571L17.571 13.9953L17.6807 8.5595L5.7777 20.4625C5.14656 21.0936 4.14349 21.1138 3.53727 20.5076C2.96671 19.9371 2.95105 19.015 3.47737 18.3823L3.5824 18.2672L15.5311 6.31849L10.0049 6.42917C9.12999 6.4468 8.43499 5.7518 8.45262 4.87686C8.46914 4.0566 9.10612 3.36938 9.90661 3.27216L10.0688 3.26072L19.3746 3.07327C20.2496 3.05565 20.9445 3.75064 20.9269 4.62559L20.7395 13.9314C20.7218 14.8064 19.9983 15.53 19.1233 15.5476Z" fill="#777777"/>
</svg>
