<svg width="24" height="24" viewBox="0 0 24 24" fill="none" xmlns="http://www.w3.org/2000/svg">
<path d="M9.47219 4.45466C10.0639 5.02299 10.1009 5.92236 9.58313 6.53207L9.47219 6.64997L5.55097 10.4161H22.3844C23.2769 10.4161 24.0005 11.1111 24.0005 11.9684C24.0005 12.7753 23.3595 13.4384 22.54 13.5136L22.3844 13.5207H5.48632L9.47219 17.35C10.1033 17.9563 10.1033 18.9391 9.47219 19.5453C8.88049 20.1137 7.94414 20.1492 7.30937 19.6519L7.18663 19.5453L0.473844 13.0977C-0.157297 12.4914 -0.157297 11.5086 0.473844 10.9023L7.18663 4.45466C7.81777 3.84845 8.84105 3.84845 9.47219 4.45466Z" fill="#777777"/>
</svg>
