<svg width="24" height="24" viewBox="0 0 24 24" fill="none" xmlns="http://www.w3.org/2000/svg">
<path d="M14.5283 19.5453C13.9366 18.977 13.8996 18.0776 14.4174 17.4679L14.5283 17.35L18.4495 13.5839L1.61614 13.5839C0.723568 13.5839 0 12.8889 0 12.0316C0 11.2247 0.640945 10.5616 1.46049 10.4864L1.61614 10.4793L18.5142 10.4793L14.5283 6.64996C13.8972 6.04374 13.8972 5.06087 14.5283 4.45466C15.12 3.88633 16.0563 3.85081 16.6911 4.34809L16.8139 4.45466L23.5266 10.9023C24.1578 11.5086 24.1578 12.4914 23.5266 13.0976L16.8139 19.5453C16.1827 20.1515 15.1594 20.1515 14.5283 19.5453Z" fill="#777777"/>
</svg>
