<svg width="24" height="24" viewBox="0 0 24 24" fill="none" xmlns="http://www.w3.org/2000/svg">
<path d="M4.45466 14.5283C5.02299 13.9366 5.92236 13.8996 6.53207 14.4174L6.64997 14.5283L10.4161 18.4495L10.4161 1.61614C10.4161 0.723568 11.1111 0 11.9684 0C12.7753 0 13.4384 0.640945 13.5136 1.46049L13.5207 1.61614L13.5207 18.5142L17.35 14.5283C17.9563 13.8972 18.9391 13.8972 19.5453 14.5283C20.1137 15.12 20.1492 16.0563 19.6519 16.6911L19.5453 16.8139L13.0977 23.5266C12.4914 24.1578 11.5086 24.1578 10.9023 23.5266L4.45466 16.8139C3.84845 16.1827 3.84845 15.1594 4.45466 14.5283Z" fill="#777777"/>
</svg>
