<svg width="24" height="24" viewBox="0 0 24 24" fill="none" xmlns="http://www.w3.org/2000/svg">
<path d="M19.5458 9.47169C18.9775 10.0634 18.0781 10.1004 17.4684 9.58264L17.3505 9.47169L13.5844 5.55047V22.3839C13.5844 23.2764 12.8894 24 12.0321 24C11.2252 24 10.5621 23.359 10.4869 22.5395L10.4798 22.3839V5.48583L6.65045 9.47169C6.04424 10.1028 5.06137 10.1028 4.45515 9.47169C3.88682 8.88 3.8513 7.94365 4.34859 7.30887L4.45515 7.18613L10.9028 0.473348C11.5091 -0.157793 12.4919 -0.157793 13.0981 0.473348L19.5458 7.18613C20.152 7.81727 20.152 8.84055 19.5458 9.47169Z" fill="#777777"/>
</svg>
