<svg width="24" height="24" viewBox="0 0 24 24" fill="none" xmlns="http://www.w3.org/2000/svg">
<path d="M12.2784 0.00326844C13.851 0.0400494 15.4001 0.387134 16.8372 1.01922C18.3007 1.66297 19.624 2.59177 20.7239 3.75297C21.839 4.9302 22.7068 6.32691 23.2735 7.88059C24.1162 10.1913 24.2211 12.6553 23.6126 14.9855C23.1561 16.7339 22.3085 18.3616 21.1357 19.7385C19.801 21.3053 18.0808 22.5076 16.1032 23.226C15.4149 23.476 14.6539 23.1218 14.4034 22.435C14.1529 21.7481 14.5078 20.9887 15.196 20.7387C16.7387 20.1783 18.0761 19.2436 19.1148 18.0241C20.0289 16.9511 20.69 15.6814 21.046 14.3181C21.5199 12.5034 21.4383 10.588 20.7811 8.78589C20.3389 7.57342 19.6639 6.48704 18.7964 5.57124C17.9402 4.66725 16.9088 3.94333 15.7675 3.44132C14.647 2.9485 13.4401 2.67808 12.2163 2.64946C11.0645 2.62252 9.91207 2.8097 8.80388 3.21222C7.69093 3.61648 6.68374 4.21571 5.81628 4.97983C4.95918 5.73482 4.24906 6.64196 3.71945 7.65326C3.1404 8.75894 2.78702 9.97028 2.68398 11.2127C2.57381 12.5411 2.75105 13.8824 3.21881 15.165C3.55739 16.0933 4.03253 16.9483 4.62748 17.7104C5.41024 18.713 6.39052 19.5416 7.50268 20.1502L5.99254 15.4153C5.78726 14.7724 6.09988 14.0886 6.69806 13.8127L6.85342 13.7524C7.49758 13.5476 8.18277 13.8596 8.45929 14.4565L8.51965 14.6116L10.6439 21.2638C10.8759 21.9901 10.4469 22.7484 9.7302 22.9424L9.57236 22.9752L2.64995 23.9859C1.92525 24.0917 1.2518 23.5912 1.14577 22.868C1.0479 22.2004 1.46771 21.5764 2.10288 21.4011L2.26598 21.3669L4.20957 21.0828C3.59611 20.561 3.03455 19.9768 2.53518 19.3371C1.77044 18.3575 1.16008 17.2593 0.72644 16.0703C0.126975 14.4266 -0.100921 12.7019 0.0406885 10.9944C0.173012 9.39883 0.626309 7.845 1.36879 6.42724C2.04814 5.13003 2.95971 3.96556 4.06109 2.99538C5.17624 2.01309 6.4708 1.24287 7.89673 0.724933C9.31655 0.209216 10.7977 -0.031363 12.2784 0.00326844Z" fill="#777777"/>
</svg>
