<svg width="24" height="24" viewBox="0 0 24 24" fill="none" xmlns="http://www.w3.org/2000/svg">
<g clip-path="url(#clip0)">
<path fill-rule="evenodd" clip-rule="evenodd" d="M8.76547 0C8.39894 0 7.98614 0.183109 7.71257 0.459301L0.484194 7.64078C0.169774 7.94429 0 8.32805 0 8.75009C0 9.16193 0.171471 9.54508 0.484193 9.84696L7.70905 17.0249C7.99221 17.3249 8.40963 17.4877 8.76547 17.4877C9.18361 17.4877 9.55808 17.3449 9.82896 17.0706C10.0995 16.7967 10.2379 16.4208 10.2379 16.0095C10.2379 15.5806 10.0854 15.2522 9.8408 14.988L6.26546 11.4683L4.76148 10.1632L6.54787 10.2408H15.0132C17.0423 10.2408 18.5435 10.8064 19.5338 11.7289C20.521 12.6486 21.0429 13.9621 21.0429 15.5487C21.0429 17.143 20.5199 18.4999 19.5286 19.4591C18.5364 20.4192 17.0361 21.0186 15.0132 21.0186H12.1845C11.2939 21.0186 10.6875 21.6935 10.6875 22.5093C10.6875 23.325 11.2939 24 12.1845 24H15.0255C17.845 24 20.0955 23.1848 21.644 21.7126C23.1949 20.2382 24 18.1441 24 15.6733C24 13.2057 23.1715 11.0875 21.5864 9.58813C20.0036 8.09091 17.705 7.24692 14.8287 7.24692L6.56402 7.2465L4.76725 7.33201L6.26571 6.03162L9.829 2.51188L9.84051 2.49945C10.0851 2.2353 10.2379 1.90709 10.2379 1.47827C10.2379 1.06691 10.0995 0.691068 9.82896 0.417105C9.55808 0.142852 9.18361 0 8.76547 0Z" fill="#777777"/>
</g>
<defs>
<clipPath id="clip0">
<rect width="24" height="24" fill="white"/>
</clipPath>
</defs>
</svg>
