<svg width="24" height="24" viewBox="0 0 24 24" fill="none" xmlns="http://www.w3.org/2000/svg">
<g clip-path="url(#clip0)">
<path d="M20.4855 3.51472C21.0861 4.11527 21.1214 5.06699 20.5915 5.70885L20.4855 5.82541L14.3115 11.9992L20.4855 18.1746C21.1236 18.8127 21.1236 19.8472 20.4855 20.4853C19.885 21.0858 18.9333 21.1212 18.2914 20.5913L18.1748 20.4853L12.0002 14.3104L5.82565 20.4853C5.18757 21.1234 4.15304 21.1234 3.51496 20.4853C2.91442 19.8847 2.87909 18.933 3.40898 18.2912L3.51496 18.1746L9.68899 11.9992L3.51496 5.82541C2.87689 5.18733 2.87688 4.1528 3.51496 3.51472C4.11551 2.91418 5.06723 2.87885 5.70909 3.40875L5.82564 3.51472L12.0002 9.68793L18.1748 3.51472C18.8129 2.87665 19.8474 2.87665 20.4855 3.51472Z" fill="#777777"/>
</g>
<defs>
<clipPath id="clip0">
<rect width="24" height="24" fill="white"/>
</clipPath>
</defs>
</svg>
