<svg width="24" height="24" viewBox="0 0 24 24" fill="none" xmlns="http://www.w3.org/2000/svg">
<path d="M6.341 10.8962C6.76724 10.4525 7.44177 10.4247 7.89905 10.813L7.98748 10.8962L10.8121 13.8371V1.2121C10.8121 0.542677 11.3333 3.00615e-07 11.9763 3.00615e-07C12.5815 3.00615e-07 13.0788 0.480709 13.1352 1.09537L13.1405 1.2121V13.8856L16.0125 10.8962C16.4672 10.4229 17.2043 10.4229 17.659 10.8962C18.0852 11.34 18.1119 12.0423 17.7389 12.5183L17.659 12.6104L12.8232 17.645C12.3686 18.1183 11.6314 18.1183 11.1768 17.645L6.341 12.6104C5.88633 12.137 5.88633 11.3696 6.341 10.8962Z" fill="#777777"/>
<path fill-rule="evenodd" clip-rule="evenodd" d="M1.25 12.5C1.94036 12.5 2.5 13.0596 2.5 13.75V21.5H21.5V13.75C21.5 13.0596 22.0596 12.5 22.75 12.5C23.4404 12.5 24 13.0596 24 13.75V22.75C24 23.4404 23.4404 24 22.75 24H1.25C0.559644 24 0 23.4404 0 22.75V13.75C0 13.0596 0.559644 12.5 1.25 12.5Z" fill="#777777"/>
</svg>
