<svg width="24" height="24" viewBox="0 0 24 24" fill="none" xmlns="http://www.w3.org/2000/svg">
<path fill-rule="evenodd" clip-rule="evenodd" d="M7.5 5C8.88071 5 10 3.88071 10 2.5C10 1.11929 8.88071 0 7.5 0C6.11929 0 5 1.11929 5 2.5C5 3.88071 6.11929 5 7.5 5ZM17.5 5C18.8807 5 20 3.88071 20 2.5C20 1.11929 18.8807 0 17.5 0C16.1193 0 15 1.11929 15 2.5C15 3.88071 16.1193 5 17.5 5ZM10 11.5C10 12.8807 8.88071 14 7.5 14C6.11929 14 5 12.8807 5 11.5C5 10.1193 6.11929 9 7.5 9C8.88071 9 10 10.1193 10 11.5ZM7.5 23C8.88071 23 10 21.8807 10 20.5C10 19.1193 8.88071 18 7.5 18C6.11929 18 5 19.1193 5 20.5C5 21.8807 6.11929 23 7.5 23ZM20 11.5C20 12.8807 18.8807 14 17.5 14C16.1193 14 15 12.8807 15 11.5C15 10.1193 16.1193 9 17.5 9C18.8807 9 20 10.1193 20 11.5ZM17.5 23C18.8807 23 20 21.8807 20 20.5C20 19.1193 18.8807 18 17.5 18C16.1193 18 15 19.1193 15 20.5C15 21.8807 16.1193 23 17.5 23Z" fill="#777777"/>
</svg>
