<svg width="24" height="24" viewBox="0 0 24 24" fill="none" xmlns="http://www.w3.org/2000/svg">
<g clip-path="url(#clip0)">
<path d="M21.7505 6.21624L20.1635 7.80326L16.1959 3.8308L17.7829 2.24378C18.1062 1.92049 18.6695 1.92049 18.9928 2.24378L21.7505 5.00638C22.0836 5.33945 22.0836 5.88316 21.7505 6.21624ZM8.491 19.4904L4.52344 15.518L14.7803 5.24639L18.7479 9.21885L8.491 19.4904ZM3.60747 17.4332L6.57579 20.4064L2.44169 21.5722L3.60747 17.4332ZM23.1661 3.59079L20.4084 0.82819C19.8696 0.289385 17.925 -0.729445 16.3722 0.82819L2.39761 14.8126C2.27515 14.9351 2.18698 15.082 2.1429 15.2486L0.0366635 22.7477C-0.061301 23.0955 0.0415617 23.4678 0.291371 23.7274C0.546079 23.987 1.05549 24.0311 1.27102 23.9821L8.7653 21.871C8.93184 21.8269 9.07878 21.7387 9.20124 21.6163L23.1661 7.63182C24.278 6.51993 24.278 4.70758 23.1661 3.59079Z" fill="#777777"/>
</g>
<defs>
<clipPath id="clip0">
<rect width="24" height="24" fill="white"/>
</clipPath>
</defs>
</svg>
