<svg width="24" height="24" viewBox="0 0 24 24" fill="none" xmlns="http://www.w3.org/2000/svg">
<path fill-rule="evenodd" clip-rule="evenodd" d="M12 0C18.6274 0 24 5.37258 24 12C24 18.6274 18.6274 24 12 24C5.37258 24 0 18.6274 0 12C0 5.37258 5.37258 0 12 0ZM4.89497 12.5651C4.23881 12.3819 3.54278 12.9205 3.67945 13.8981C4.35445 17.8226 8.02511 20.8054 12.0125 20.8054C16.0314 20.8054 19.6757 17.7752 20.3135 13.8042C20.3928 12.8988 19.7103 12.3838 19.0708 12.5697C16.953 13.3053 14.3704 13.8991 12.0125 13.8991C9.64975 13.8991 7.01721 13.3034 4.89497 12.5651ZM6.03077 15.5083C4.74429 14.6811 5.09471 13.5179 6.14116 13.8756C7.58358 14.4717 9.67997 14.8487 12.0238 14.8487C14.2175 14.8487 17.7686 13.9317 17.8308 13.9069C18.9377 13.4461 19.0371 14.8379 17.8308 15.5083C16.3835 16.3607 14.4812 16.8882 12.0238 16.8882C9.62259 16.8882 7.44823 16.3814 6.03077 15.5083ZM8.34783 6.26087C7.48338 6.26087 6.78261 6.96164 6.78261 7.82609C6.78261 8.69053 7.48338 9.3913 8.34783 9.3913C9.21227 9.3913 9.91304 8.69053 9.91304 7.82609C9.91304 6.96164 9.21227 6.26087 8.34783 6.26087ZM15.6522 6.26087C14.7877 6.26087 14.087 6.96164 14.087 7.82609C14.087 8.69053 14.7877 9.3913 15.6522 9.3913C16.5166 9.3913 17.2174 8.69053 17.2174 7.82609C17.2174 6.96164 16.5166 6.26087 15.6522 6.26087Z" fill="#777777"/>
</svg>
