<svg width="24" height="24" viewBox="0 0 24 24" fill="none" xmlns="http://www.w3.org/2000/svg">
<path fill-rule="evenodd" clip-rule="evenodd" d="M0 1.12188C0 3.74622 1.12498 6.25151 3.08661 7.99512L7.12417 11.5836C7.78155 12.1679 8.15867 13.0077 8.15867 13.8874V22.8771C8.15867 23.7712 9.15764 24.3072 9.90276 23.8103L15.342 20.1846C15.6539 19.9765 15.8415 19.6264 15.8415 19.2512V13.8874C15.8415 13.0077 16.2186 12.1679 16.876 11.5836L20.9134 7.99512C22.875 6.25151 24 3.74622 24 1.12188C24 0.502243 23.4978 0 22.8783 0H1.12192C0.502258 0 0 0.502218 0 1.12188ZM23.8 1.12188C23.8 3.68909 22.6995 6.13999 20.7805 7.84564L16.7431 11.4341C16.0431 12.0564 15.6415 12.9505 15.6415 13.8874V19.2512C15.6415 19.5594 15.4874 19.8471 15.231 20.0182L9.79179 23.6439C9.63878 23.746 9.47271 23.795 9.30967 23.7996C9.47269 23.795 9.63875 23.746 9.79175 23.6439L15.2309 20.0182C15.4873 19.8471 15.6415 19.5594 15.6415 19.2512V13.8874C15.6415 12.9505 16.043 12.0564 16.7431 11.4341L20.7805 7.84564C22.6994 6.13998 23.8 3.68909 23.8 1.12187C23.8 0.631585 23.4173 0.230773 22.9345 0.201687C23.4173 0.230748 23.8 0.631572 23.8 1.12188ZM19.4227 6.31802L15.3853 9.90668C14.2493 10.9166 13.5977 12.3673 13.5977 13.8872V18.6508L10.4023 20.7808V13.8874C10.4023 12.3673 9.75073 10.9166 8.6147 9.90668L4.57732 6.3182C3.3772 5.25123 2.59117 3.80727 2.33497 2.24357H21.665C21.4088 3.80729 20.623 5.25124 19.4227 6.31802ZM10.2023 21.1545V13.8874C10.2023 12.4244 9.57518 11.0281 8.48183 10.0562L4.44445 6.46768C3.20148 5.36263 2.39036 3.86463 2.13238 2.24357C2.12181 2.17711 2.11216 2.11044 2.10345 2.04357L21.8965 2.04357H2.1034C2.32452 3.74112 3.15047 5.31732 4.4444 6.46768L8.48178 10.0562C9.57513 11.0281 10.2023 12.4244 10.2023 13.8874V21.1545L10.2023 21.1545Z" fill="#777777"/>
</svg>
