<svg width="24" height="24" viewBox="0 0 24 24" fill="none" xmlns="http://www.w3.org/2000/svg">
<path d="M13.4063 0C13.7298 0 14.0116 0.220828 14.0889 0.534984C14.089 0.534984 14.5588 2.44327 14.7664 3.28589C15.2847 3.45028 15.7875 3.66103 16.2688 3.91561C16.9649 3.49894 18.3897 2.64403 18.4075 2.63334C18.6842 2.46736 19.0383 2.51095 19.2665 2.73909L21.2552 4.72781C21.4833 4.95595 21.5269 5.31009 21.3609 5.58675C21.3609 5.58675 20.4908 7.03702 20.0792 7.72298C20.3363 8.20692 20.5489 8.71294 20.7144 9.23466L23.4648 9.91097C23.7791 9.98827 24 10.2701 24 10.5938V13.4063C24 13.73 23.779 14.0118 23.4646 14.0891C23.4419 14.0947 21.5497 14.5596 20.7142 14.7658C20.5525 15.2756 20.3461 15.77 20.0973 16.2428C20.5045 16.9215 21.3609 18.349 21.3609 18.349C21.5269 18.6256 21.4833 18.9798 21.2552 19.2079L19.2665 21.1967C19.0383 21.4249 18.6841 21.4684 18.4075 21.3024C18.4075 21.3024 17.0005 20.4582 16.3242 20.0524C15.828 20.3214 15.3062 20.5431 14.7653 20.7147L14.089 23.4648C14.0117 23.7791 13.7299 24 13.4063 24H10.5938C10.27 24 9.98808 23.7789 9.91097 23.4645L9.23522 20.7148C8.70862 20.5479 8.19797 20.333 7.70958 20.073C7.04006 20.4737 5.67628 21.292 5.65898 21.3024C5.38228 21.4684 5.02819 21.4248 4.80005 21.1966L2.81128 19.2079C2.58314 18.9798 2.53955 18.6256 2.70553 18.3489L3.93338 16.3024C3.67031 15.8099 3.4538 15.2956 3.28669 14.7658C2.33484 14.5303 0.5565 14.0942 0.535734 14.0891C0.221203 14.012 0 13.7301 0 13.4063V10.5938C0 10.2699 0.221156 9.98798 0.535687 9.91088C0.556687 9.90572 2.3483 9.46631 3.28589 9.23306C3.43364 8.76745 3.61894 8.31389 3.83981 7.87748C3.30141 6.97631 2.47711 5.60245 2.46773 5.58675C2.30175 5.31009 2.34534 4.95595 2.57348 4.72781L4.5623 2.73909C4.79044 2.511 5.14444 2.46736 5.42123 2.63334L6.47414 3.26508C6.88955 3.51431 7.33856 3.78375 7.63988 3.9645C8.14884 3.68775 8.68233 3.4605 9.23367 3.28566C9.39427 2.63405 9.71761 1.32066 9.91102 0.535031C9.98836 0.220828 10.2702 0 10.5938 0H13.4063ZM12 5.95008C8.66408 5.95008 5.95008 8.66408 5.95008 12C5.95008 15.3359 8.66408 18.0499 12 18.0499C15.3359 18.0499 18.0499 15.3359 18.0499 12C18.0499 8.66408 15.3359 5.95008 12 5.95008Z" fill="#777777"/>
</svg>
