<svg width="24" height="24" viewBox="0 0 24 24" fill="none" xmlns="http://www.w3.org/2000/svg">
<path opacity="0.39953" fill-rule="evenodd" clip-rule="evenodd" d="M18.8723 1.6C20.6554 1.6 21.3019 1.78565 21.9538 2.13426C22.6056 2.48287 23.1172 2.99444 23.4658 3.64629C23.8144 4.29813 24.0001 4.9447 24.0001 6.72772V17.2721C24.0001 17.4236 23.9987 17.567 23.9961 17.7028L21.54 15.2457L21.3564 15.0742C19.9144 13.8162 17.7031 13.8696 16.3244 15.2482L14.6006 16.9729L9.39782 11.7702C7.97588 10.3482 5.6347 10.3381 4.20265 11.7702L0 15.9727L0.000299997 6.72772C0.000299997 4.9447 0.185949 4.29813 0.53456 3.64629C0.883171 2.99444 1.39474 2.48287 2.04659 2.13426C2.69843 1.78565 3.345 1.6 5.12802 1.6H18.8723Z" fill="#777777"/>
<path d="M16.6311 11.6555C18.0796 11.6555 19.2539 10.4813 19.2539 9.03273C19.2539 7.58422 18.0796 6.40996 16.6311 6.40996C15.1826 6.40996 14.0083 7.58422 14.0083 9.03273C14.0083 10.4813 15.1826 11.6555 16.6311 11.6555Z" fill="#777777"/>
<path fill-rule="evenodd" clip-rule="evenodd" d="M8.01904 12.9846L14.6002 19.5658L17.7034 16.4627C18.3828 15.7833 19.4934 15.7924 20.1612 16.4602L23.6553 19.9543C23.5988 20.0933 23.5357 20.2233 23.466 20.3535C23.1174 21.0054 22.6058 21.5169 21.954 21.8655C21.3022 22.2141 20.6556 22.3998 18.8726 22.3998H5.12824C3.34522 22.3998 2.69865 22.2141 2.0468 21.8655C1.39496 21.5169 0.883386 21.0054 0.534775 20.3535C0.28352 19.8837 0.116916 19.4166 0.043457 18.5249L5.58156 12.9846C6.25465 12.3116 7.36125 12.3269 8.01904 12.9846Z" fill="#777777"/>
</svg>
