<svg width="24" height="24" viewBox="0 0 24 24" fill="none" xmlns="http://www.w3.org/2000/svg">
<path fill-rule="evenodd" clip-rule="evenodd" d="M22.7368 18.4286C23.4345 18.4286 24 19.0042 24 19.7143C24 20.4244 23.4345 21 22.7368 21H1.26316C0.565535 21 0 20.4244 0 19.7143C0 19.0042 0.565535 18.4286 1.26316 18.4286H22.7368ZM22.7368 10.7143C23.4345 10.7143 24 11.2899 24 12C24 12.7101 23.4345 13.2857 22.7368 13.2857H1.26316C0.565535 13.2857 0 12.7101 0 12C0 11.2899 0.565535 10.7143 1.26316 10.7143H22.7368ZM22.7368 3C23.4345 3 24 3.57563 24 4.28571C24 4.99579 23.4345 5.57143 22.7368 5.57143H1.26316C0.565535 5.57143 0 4.99579 0 4.28571C0 3.57563 0.565535 3 1.26316 3H22.7368Z" fill="#777777"/>
</svg>
