<svg width="24" height="24" viewBox="0 0 24 24" fill="none" xmlns="http://www.w3.org/2000/svg">
<path fill-rule="evenodd" clip-rule="evenodd" d="M0.342857 21.5H6.85714C6.99429 21.5 7.13143 21.3982 7.2 21.2625L12.8229 2.94107V2.83929C12.8229 2.63571 12.6857 2.5 12.48 2.5H3.97714C3.80571 2.5 3.66857 2.60179 3.63429 2.77143L0 21.0929V21.1607C0 21.3643 0.137143 21.5 0.342857 21.5ZM10.6285 21.5H16.4571C16.5942 21.5 16.7314 21.3982 16.7656 21.2964L23.7256 2.975C23.7599 2.90714 23.7599 2.87321 23.7599 2.83929C23.7599 2.63571 23.6228 2.5 23.4171 2.5H14.9142C14.7428 2.5 14.6056 2.60179 14.5714 2.77143L10.2856 21.0929V21.1607C10.2856 21.3643 10.4228 21.5 10.6285 21.5Z" fill="#727272" fill-opacity="0.1"/>
</svg>
