<svg width="24" height="24" viewBox="0 0 24 24" fill="none" xmlns="http://www.w3.org/2000/svg">
<path fill-rule="evenodd" clip-rule="evenodd" d="M12.463 0.0932576C12.1635 -0.031044 11.8267 -0.0311373 11.5271 0.0932865L2.57247 3.81038C2.117 3.99948 1.82007 4.44408 1.82007 4.93722V9.45586C1.82007 15.8023 5.65682 21.5112 11.5339 23.9095C11.8295 24.0302 12.1606 24.0301 12.4562 23.9095C18.3332 21.5113 22.1701 15.8024 22.1701 9.45586V4.93722C22.1701 4.4441 21.8732 3.99948 21.4176 3.81037L12.463 0.0932576ZM4.26082 9.45586V5.75176L11.9951 2.54121L19.7293 5.75176V9.45586C19.7293 14.5807 16.7449 19.3016 11.9951 21.4518C7.37 19.3574 4.26082 14.7179 4.26082 9.45586Z" fill="#777777"/>
</svg>
