<svg width="24" height="24" viewBox="0 0 24 24" fill="none" xmlns="http://www.w3.org/2000/svg">
<path opacity="0.39581" fill-rule="evenodd" clip-rule="evenodd" d="M18.4115 0.549156H5.5885C3.15614 0.549156 1.18433 2.52097 1.18433 4.95333V19.0467C1.18433 21.479 3.15614 23.4508 5.5885 23.4508H18.4115C20.8438 23.4508 22.8157 21.479 22.8157 19.0467V4.95333C22.8157 2.52097 20.8438 0.549156 18.4115 0.549156ZM5.5885 2.31082H18.4115C19.8709 2.31082 21.054 3.49391 21.054 4.95333V19.0467C21.054 20.5061 19.8709 21.6892 18.4115 21.6892H5.5885C4.12908 21.6892 2.94599 20.5061 2.94599 19.0467V4.95333C2.94599 3.49391 4.12908 2.31082 5.5885 2.31082Z" fill="#777777"/>
<path d="M16.2284 18.0099C16.7875 18.0099 17.1918 17.64 17.1918 17.1325C17.1918 16.969 17.1574 16.8056 17.0714 16.5647L13.2866 6.31988C13.0285 5.63173 12.6156 5.32206 11.9447 5.32206C11.2651 5.32206 10.8436 5.64033 10.5942 6.32848L6.81794 16.5647C6.73192 16.797 6.69751 16.9862 6.69751 17.1325C6.69751 17.6572 7.08459 18.0099 7.66092 18.0099C8.15983 18.0099 8.44369 17.769 8.62433 17.2099L9.56194 14.5433H14.3102L15.2564 17.2185C15.4284 17.769 15.7123 18.0099 16.2284 18.0099ZM13.8199 12.9691H10.0522L11.9017 7.52415H11.9533L13.8199 12.9691Z" fill="#777777"/>
<path d="M21.9348 9.93483C23.0754 9.93483 24 10.8594 24 12C24 13.1406 23.0754 14.0652 21.9348 14.0652C20.7942 14.0652 19.8696 13.1406 19.8696 12C19.8696 10.8594 20.7942 9.93483 21.9348 9.93483ZM21.9348 11.4029C21.605 11.4029 21.3377 11.6702 21.3377 12C21.3377 12.3298 21.605 12.5971 21.9348 12.5971C22.2646 12.5971 22.5319 12.3298 22.5319 12C22.5319 11.6702 22.2646 11.4029 21.9348 11.4029Z" fill="#777777"/>
<path d="M2.06517 9.93483C3.20573 9.93483 4.13033 10.8594 4.13033 12C4.13033 13.1406 3.20573 14.0652 2.06517 14.0652C0.924607 14.0652 0 13.1406 0 12C0 10.8594 0.924607 9.93483 2.06517 9.93483ZM2.06517 11.4029C1.73539 11.4029 1.46806 11.6702 1.46806 12C1.46806 12.3298 1.73539 12.5971 2.06517 12.5971C2.39494 12.5971 2.66228 12.3298 2.66228 12C2.66228 11.6702 2.39494 11.4029 2.06517 11.4029Z" fill="#777777"/>
</svg>
