<svg width="160" height="165" viewBox="0 0 160 165" fill="none" xmlns="http://www.w3.org/2000/svg">
<g clip-path="url(#clip0_487_176643)" filter="url(#filter0_d_487_176643)">
<rect width="160" height="160" fill="white"/>
<g filter="url(#filter1_di_487_176643)">
<rect width="160" height="160" fill="#FDBD7A"/>
<rect x="2.5" y="2.5" width="155" height="155" stroke="#111111" stroke-width="5"/>
</g>
<rect x="100" y="135" width="35" height="5" fill="#C78751"/>
<rect x="95" y="100" width="5" height="35" fill="#C78751"/>
<rect x="135" y="100" width="5" height="35" fill="#C78751"/>
<path fill-rule="evenodd" clip-rule="evenodd" d="M125 105H110V115H115V120V125H110V130H125V125H120V120V115H125V105Z" fill="#111111"/>
<rect x="100" y="95" width="35" height="5" fill="#C78751"/>
<rect x="25" y="135" width="35" height="5" fill="#C78751"/>
<rect width="5" height="35" transform="matrix(-1 0 0 1 25 100)" fill="#C78751"/>
<path fill-rule="evenodd" clip-rule="evenodd" d="M40 105H45V110H50V115H55V120H50H45V125V125V130H40V125V125V120H35H30V115H35V110H40V105Z" fill="#111111"/>
<rect width="5" height="35" transform="matrix(-1 0 0 1 65 100)" fill="#C78751"/>
<rect width="35" height="5" transform="matrix(-1 0 0 1 60 95)" fill="#C78751"/>
</g>
<defs>
<filter id="filter0_d_487_176643" x="0" y="0" width="160" height="165" filterUnits="userSpaceOnUse" color-interpolation-filters="sRGB">
<feFlood flood-opacity="0" result="BackgroundImageFix"/>
<feColorMatrix in="SourceAlpha" type="matrix" values="0 0 0 0 0 0 0 0 0 0 0 0 0 0 0 0 0 0 127 0" result="hardAlpha"/>
<feOffset dy="5"/>
<feComposite in2="hardAlpha" operator="out"/>
<feColorMatrix type="matrix" values="0 0 0 0 0 0 0 0 0 0 0 0 0 0 0 0 0 0 0.1 0"/>
<feBlend mode="normal" in2="BackgroundImageFix" result="effect1_dropShadow_487_176643"/>
<feBlend mode="normal" in="SourceGraphic" in2="effect1_dropShadow_487_176643" result="shape"/>
</filter>
<filter id="filter1_di_487_176643" x="0" y="0" width="160" height="165" filterUnits="userSpaceOnUse" color-interpolation-filters="sRGB">
<feFlood flood-opacity="0" result="BackgroundImageFix"/>
<feColorMatrix in="SourceAlpha" type="matrix" values="0 0 0 0 0 0 0 0 0 0 0 0 0 0 0 0 0 0 127 0" result="hardAlpha"/>
<feOffset dy="5"/>
<feComposite in2="hardAlpha" operator="out"/>
<feColorMatrix type="matrix" values="0 0 0 0 0 0 0 0 0 0 0 0 0 0 0 0 0 0 0.1 0"/>
<feBlend mode="normal" in2="BackgroundImageFix" result="effect1_dropShadow_487_176643"/>
<feBlend mode="normal" in="SourceGraphic" in2="effect1_dropShadow_487_176643" result="shape"/>
<feColorMatrix in="SourceAlpha" type="matrix" values="0 0 0 0 0 0 0 0 0 0 0 0 0 0 0 0 0 0 127 0" result="hardAlpha"/>
<feMorphology radius="10" operator="erode" in="SourceAlpha" result="effect2_innerShadow_487_176643"/>
<feOffset/>
<feComposite in2="hardAlpha" operator="arithmetic" k2="-1" k3="1"/>
<feColorMatrix type="matrix" values="0 0 0 0 0.780392 0 0 0 0 0.529412 0 0 0 0 0.317647 0 0 0 1 0"/>
<feBlend mode="normal" in2="shape" result="effect2_innerShadow_487_176643"/>
</filter>
<clipPath id="clip0_487_176643">
<rect width="160" height="160" fill="white"/>
</clipPath>
</defs>
</svg>
