<svg width="24" height="24" viewBox="0 0 24 24" fill="none" xmlns="http://www.w3.org/2000/svg">
<path d="M20.3303 4.52335C18.7767 3.8117 17.1155 3.29448 15.3789 3C15.1656 3.37754 14.9164 3.88532 14.7446 4.28928C12.8985 4.01746 11.0693 4.01746 9.25721 4.28928C9.0854 3.88532 8.8305 3.37754 8.61534 3C6.87681 3.29448 5.21375 3.81359 3.66021 4.52713C0.526643 9.16327 -0.322811 13.6843 0.101916 18.1411C2.18025 19.6607 4.19439 20.5838 6.17458 21.1878C6.66347 20.5289 7.09954 19.8287 7.47521 19.0906C6.75977 18.8244 6.07453 18.496 5.42706 18.1146C5.59886 17.9901 5.76683 17.8598 5.92917 17.7257C9.87824 19.5342 14.1689 19.5342 18.0707 17.7257C18.235 17.8598 18.403 17.9901 18.5728 18.1146C17.9235 18.4978 17.2364 18.8263 16.5209 19.0925C16.8966 19.8287 17.3308 20.5309 17.8216 21.1896C19.8036 20.5856 21.8197 19.6625 23.898 18.1411C24.3963 12.9745 23.0467 8.49504 20.3303 4.52335V4.52335ZM8.01315 15.4002C6.82774 15.4002 5.85556 14.3166 5.85556 12.9972C5.85556 11.6777 6.80695 10.5923 8.01315 10.5923C9.21939 10.5923 10.1916 11.6758 10.1708 12.9972C10.1727 14.3166 9.21939 15.4002 8.01315 15.4002ZM15.9867 15.4002C14.8013 15.4002 13.8291 14.3166 13.8291 12.9972C13.8291 11.6777 14.7805 10.5923 15.9867 10.5923C17.1929 10.5923 18.1651 11.6758 18.1444 12.9972C18.1444 14.3166 17.1929 15.4002 15.9867 15.4002Z" fill="#666666"/>
</svg>
