<svg width="24" height="24" viewBox="0 0 24 24" fill="none" xmlns="http://www.w3.org/2000/svg">
<path fill-rule="evenodd" clip-rule="evenodd" d="M12 2.16133C15.2067 2.16133 15.5853 2.176 16.8467 2.232C18.0187 2.284 18.652 2.48 19.0733 2.644C19.6307 2.86 20.0347 3.12267 20.452 3.53867C20.8733 3.96 21.132 4.35867 21.352 4.91733C21.516 5.33867 21.7133 5.97733 21.764 7.144C21.82 8.40933 21.8347 8.78933 21.8347 11.9907C21.8347 15.192 21.82 15.576 21.764 16.8373C21.712 18.0093 21.516 18.6427 21.352 19.064C21.1598 19.5843 20.8542 20.0552 20.4573 20.4427C20.036 20.864 19.6373 21.1227 19.0787 21.3427C18.6573 21.5067 18.0187 21.704 16.852 21.7547C15.5867 21.8107 15.2067 21.8253 12.0053 21.8253C8.804 21.8253 8.42 21.8107 7.15867 21.7547C5.98667 21.7027 5.35333 21.5067 4.932 21.3427C4.41173 21.1505 3.94078 20.8449 3.55333 20.448C3.15499 20.0607 2.8476 19.5898 2.65333 19.0693C2.48933 18.648 2.292 18.0093 2.24133 16.8427C2.18533 15.5773 2.17067 15.1973 2.17067 11.996C2.17067 8.79467 2.18533 8.41067 2.24133 7.14933C2.29333 5.97733 2.48933 5.344 2.65333 4.92267C2.86933 4.36533 3.132 3.96133 3.548 3.544C3.96933 3.12267 4.368 2.864 4.92667 2.644C5.348 2.48 5.98667 2.28267 7.15333 2.232C8.41467 2.176 8.79333 2.16133 12 2.16133V2.16133ZM12 0C8.74267 0 8.33467 0.0146667 7.05467 0.0706667C5.78 0.126667 4.90267 0.333333 4.144 0.628C3.34158 0.929247 2.61513 1.40308 2.016 2.016C1.40407 2.61438 0.930346 3.33931 0.628 4.14C0.333333 4.904 0.126667 5.776 0.0706667 7.05067C0.0146667 8.33467 0 8.74267 0 12C0 15.2573 0.0146667 15.6653 0.0706667 16.9453C0.126667 18.22 0.333333 19.0973 0.628 19.856C0.929247 20.6584 1.40308 21.3849 2.016 21.984C2.61458 22.5944 3.33956 23.0663 4.14 23.3667C4.904 23.6613 5.776 23.868 7.05067 23.924C8.33067 23.98 8.73867 23.9947 11.996 23.9947C15.2533 23.9947 15.6613 23.98 16.9413 23.924C18.216 23.868 19.0933 23.6613 19.852 23.3667C20.652 23.0655 21.3768 22.5937 21.976 21.984C22.6427 21.3187 23.0547 20.648 23.3587 19.86C23.6533 19.096 23.86 18.224 23.916 16.9493C23.972 15.6693 23.9867 15.2613 23.9867 12.004C23.9867 8.74667 23.972 8.33867 23.916 7.05867C23.86 5.784 23.6533 4.90667 23.3587 4.148C23.0697 3.3414 22.5999 2.61165 21.9853 2.01467C21.3868 1.40426 20.6618 0.93232 19.8613 0.632C19.0973 0.337333 18.2253 0.130667 16.9507 0.0746667C15.6667 0.0133333 15.2587 0 12 0ZM12 5.836C10.3654 5.83671 8.798 6.48635 7.64217 7.64217C6.48635 8.79799 5.83671 10.3654 5.836 12C5.83671 13.6346 6.48635 15.202 7.64217 16.3578C8.798 17.5136 10.3654 18.1633 12 18.164C13.6346 18.1633 15.202 17.5136 16.3578 16.3578C17.5136 15.202 18.1633 13.6346 18.164 12C18.1633 10.3654 17.5136 8.79799 16.3578 7.64217C15.202 6.48635 13.6346 5.83671 12 5.836V5.836ZM12 15.9987C11.4687 16.0084 10.9407 15.9121 10.447 15.7155C9.95327 15.5188 9.50368 15.2258 9.12448 14.8535C8.74529 14.4811 8.44409 14.037 8.23848 13.5469C8.03287 13.0569 7.92697 12.5308 7.92697 11.9993C7.92697 11.4679 8.03287 10.9418 8.23848 10.4517C8.44409 9.9617 8.74529 9.51754 9.12448 9.1452C9.50368 8.77287 9.95327 8.47983 10.447 8.2832C10.9407 8.08657 11.4687 7.9903 12 8C13.0609 8 14.0783 8.42143 14.8284 9.17157C15.5786 9.92172 16 10.9391 16 12C16 13.0609 15.5786 14.0783 14.8284 14.8284C14.0783 15.5786 13.0609 16 12 16V15.9987ZM18.408 7.03067C18.7896 7.03067 19.1555 6.87909 19.4253 6.60929C19.6951 6.33949 19.8467 5.97356 19.8467 5.592C19.8467 5.21044 19.6951 4.84451 19.4253 4.57471C19.1555 4.30491 18.7896 4.15333 18.408 4.15333C18.0264 4.15333 17.6605 4.30491 17.3907 4.57471C17.1209 4.84451 16.9693 5.21044 16.9693 5.592C16.9693 5.97356 17.1209 6.33949 17.3907 6.60929C17.6605 6.87909 18.0264 7.03067 18.408 7.03067V7.03067Z" fill="#666666"/>
</svg>
