<svg width="24" height="24" viewBox="0 0 24 24" fill="none" xmlns="http://www.w3.org/2000/svg">
<path d="M24 12C24 18.627 18.627 24 12 24C5.37295 24 0 18.627 0 12C0 5.37295 5.37295 0 12 0C18.6284 0 24 5.37295 24 12Z" fill="#666666"/>
<path d="M5.9203 12.4032L5.97207 12.3218L9.09375 7.43836C9.13937 7.36687 9.24663 7.37426 9.28114 7.45192C9.80266 8.6207 10.2527 10.0743 10.0418 10.9792C9.95184 11.3516 9.70527 11.8558 9.42785 12.3218C9.39211 12.3897 9.35266 12.4562 9.31073 12.5203C9.291 12.5499 9.25772 12.5672 9.22196 12.5672H6.01152C5.92522 12.5672 5.87467 12.4735 5.9203 12.4032Z" fill="white"/>
<path d="M19.8347 13.3106V14.0837C19.8347 14.128 19.8075 14.1675 19.7681 14.1847C19.5264 14.2883 18.6992 14.668 18.3552 15.1464C17.4774 16.3682 16.8067 18.1152 15.3075 18.1152H9.05303C6.83632 18.1152 5.03999 16.3127 5.03999 14.0886V14.0171C5.03999 13.9579 5.08807 13.9098 5.14725 13.9098H8.63387C8.7029 13.9098 8.75344 13.9739 8.7473 14.0417C8.72263 14.2686 8.76455 14.5004 8.87181 14.7112C9.07893 15.1316 9.50798 15.3942 9.97154 15.3942H11.6976V14.0467H9.99127C9.90374 14.0467 9.85197 13.9456 9.90251 13.8741C9.92099 13.8457 9.94197 13.8161 9.96415 13.7828C10.1257 13.5535 10.3562 13.1972 10.5855 12.7916C10.7421 12.5179 10.8937 12.2257 11.0158 11.9323C11.0405 11.8793 11.0602 11.825 11.0799 11.772C11.1132 11.6783 11.1477 11.5908 11.1724 11.5032C11.197 11.4292 11.2168 11.3516 11.2365 11.2788C11.2944 11.0298 11.3191 10.7659 11.3191 10.4923C11.3191 10.385 11.3142 10.2728 11.3043 10.1655C11.2994 10.0484 11.2846 9.93127 11.2698 9.81415C11.2599 9.71059 11.2414 9.60826 11.2217 9.501C11.197 9.34443 11.1625 9.1891 11.1231 9.0325L11.1095 8.97334C11.0799 8.86606 11.0553 8.76375 11.0207 8.65649C10.9233 8.31989 10.8112 7.99195 10.6928 7.68497C10.6496 7.56291 10.6003 7.44579 10.551 7.32867C10.4783 7.15236 10.4043 6.99209 10.3365 6.84044C10.302 6.77139 10.2724 6.70851 10.2428 6.6444C10.2095 6.57166 10.175 6.49892 10.1404 6.42989C10.1158 6.37688 10.0874 6.32755 10.0677 6.27823L9.85689 5.88864C9.8273 5.83563 9.87662 5.77275 9.93455 5.78878L11.2538 6.14631H11.2575C11.2599 6.14631 11.2612 6.14755 11.2624 6.14755L11.4362 6.19563L11.6273 6.24989L11.6976 6.2696V5.48549C11.6976 5.10699 12.0009 4.8 12.3757 4.8C12.5631 4.8 12.7332 4.87644 12.8553 5.00095C12.9773 5.12549 13.0538 5.29563 13.0538 5.48549V6.64935L13.1943 6.68878C13.2054 6.6925 13.2165 6.69742 13.2264 6.70481C13.2609 6.73071 13.3102 6.76891 13.3731 6.81579C13.4224 6.85522 13.4754 6.90331 13.5395 6.95263C13.6665 7.05495 13.8182 7.18687 13.9846 7.33853C14.029 7.37674 14.0721 7.4162 14.1116 7.45565C14.3261 7.65538 14.5665 7.88962 14.7958 8.14853C14.86 8.22128 14.9228 8.29524 14.9869 8.37291C15.051 8.45182 15.1189 8.52948 15.178 8.60717C15.2557 8.71073 15.3395 8.81799 15.4123 8.93019C15.4468 8.9832 15.4863 9.03744 15.5195 9.09046C15.6132 9.23223 15.6959 9.37896 15.7748 9.52567C15.8081 9.59347 15.8426 9.66744 15.8722 9.74019C15.9597 9.93622 16.0287 10.1359 16.0731 10.3357C16.0867 10.3788 16.0965 10.4257 16.1015 10.4676V10.4775C16.1163 10.5366 16.1212 10.5995 16.1261 10.6636C16.1458 10.8683 16.136 11.0729 16.0916 11.2788C16.0731 11.3664 16.0485 11.449 16.0189 11.5365C15.9893 11.6203 15.9597 11.7079 15.9215 11.7905C15.8475 11.9618 15.76 12.1332 15.6564 12.2935C15.6231 12.3527 15.5837 12.4156 15.5442 12.4747C15.501 12.5376 15.4567 12.5968 15.4172 12.6547C15.363 12.7287 15.305 12.8064 15.2458 12.8754C15.1928 12.9482 15.1386 13.0209 15.0794 13.085C14.9968 13.1824 14.9179 13.2749 14.8353 13.3637C14.786 13.4216 14.733 13.4808 14.6787 13.5338C14.6257 13.593 14.5714 13.646 14.5221 13.6953C14.4395 13.7779 14.3705 13.842 14.3125 13.895L14.1769 14.0196C14.1572 14.0368 14.1313 14.0467 14.1042 14.0467H13.0538V15.3942H14.3754C14.6713 15.3942 14.9524 15.2894 15.1793 15.0971C15.2569 15.0293 15.596 14.7359 15.9967 14.2933C16.0102 14.2784 16.0275 14.2674 16.0472 14.2624L19.6978 13.2071C19.7656 13.1874 19.8347 13.2391 19.8347 13.3106Z" fill="white"/>
</svg>
