<svg width="24" height="24" viewBox="0 0 24 24" fill="none" xmlns="http://www.w3.org/2000/svg">
<g clip-path="url(#clip0)">
<path d="M24 4.32144C23.1182 4.71868 22.1675 4.98299 21.1747 5.1008C22.1915 4.48759 22.9697 3.5149 23.3402 2.35796C22.3894 2.92435 21.3337 3.3397 20.215 3.56172C19.3152 2.59811 18.036 2 16.6203 2C13.9016 2 11.7001 4.21874 11.7001 6.95553C11.7001 7.34219 11.7421 7.71979 11.826 8.08378C7.73507 7.87535 4.10747 5.9028 1.67959 2.90169C1.25819 3.63271 1.01375 4.48759 1.01375 5.39381C1.01375 7.11261 1.88053 8.63205 3.2017 9.51864C2.39491 9.49447 1.63609 9.26792 0.970258 8.9009V8.96283C0.970258 11.3658 2.66633 13.3716 4.92027 13.8247C4.50788 13.938 4.07148 13.9999 3.62159 13.9999C3.30368 13.9999 2.99775 13.9667 2.69332 13.9108C3.32167 15.8789 5.13922 17.3136 7.29118 17.356C5.6041 18.6867 3.48513 19.4795 1.17571 19.4795C0.776806 19.4795 0.388403 19.4554 0 19.4086C2.18345 20.8193 4.77031 21.6364 7.54911 21.6364C16.6023 21.6364 21.5571 14.08 21.5571 7.52796C21.5571 7.31047 21.5527 7.09902 21.5436 6.88606C22.5049 6.1928 23.3387 5.31829 23.9985 4.32295L24 4.32144Z" fill="#666666"/>
</g>
<defs>
<clipPath id="clip0">
<rect width="24" height="19.6364" fill="white" transform="translate(0 2)"/>
</clipPath>
</defs>
</svg>
